<?xml version="1.0" encoding="UTF-8" standalone="no"?>
<!-- Created with Inkscape (http://www.inkscape.org/) -->

<svg
   inkscape:version="1.2.2 (b0a8486541, 2022-12-01)"
   inkscape:export-ydpi="96"
   inkscape:export-xdpi="96"
   inkscape:export-filename="LOGOTIPO/ISOTIPO/ISOTIPO_30PX.svg"
   xml:space="preserve"
   sodipodi:docname="ISOIPO_30PX.svg"
   viewBox="0 0 30 21.139526"
   height="21.139526"
   width="30"
   id="svg2"
   version="1.1"
   xmlns:inkscape="http://www.inkscape.org/namespaces/inkscape"
   xmlns:sodipodi="http://sodipodi.sourceforge.net/DTD/sodipodi-0.dtd"
   xmlns="http://www.w3.org/2000/svg"
   xmlns:svg="http://www.w3.org/2000/svg"><defs
     id="defs6" /><sodipodi:namedview
     id="namedview4"
     pagecolor="#ffffff"
     bordercolor="#000000"
     borderopacity="0.25"
     inkscape:showpageshadow="2"
     inkscape:pageopacity="0.0"
     inkscape:pagecheckerboard="0"
     inkscape:deskcolor="#d1d1d1"
     showgrid="false"
     showguides="false"
     inkscape:zoom="3.6203867"
     inkscape:cx="35.217232"
     inkscape:cy="26.378398"
     inkscape:window-width="1360"
     inkscape:window-height="731"
     inkscape:window-x="0"
     inkscape:window-y="0"
     inkscape:window-maximized="1"
     inkscape:current-layer="layer7"><inkscape:grid
       type="xygrid"
       id="grid295" /><sodipodi:guide
       position="-1428.0882,1534.7776"
       orientation="0,2880"
       id="guide297"
       inkscape:locked="false" /><sodipodi:guide
       position="1451.9117,1534.7776"
       orientation="1920,0"
       id="guide299"
       inkscape:locked="false" /><sodipodi:guide
       position="1451.9117,-385.22241"
       orientation="0,-2880"
       id="guide301"
       inkscape:locked="false" /><sodipodi:guide
       position="-1428.0882,-385.22241"
       orientation="-1920,0"
       id="guide303"
       inkscape:locked="false" /><sodipodi:guide
       position="489.32264,427.07502"
       orientation="1,0"
       id="guide7706"
       inkscape:locked="false" /><sodipodi:guide
       position="13.640943,229.77866"
       orientation="1,0"
       id="guide2530"
       inkscape:locked="false" /><sodipodi:guide
       position="450.12484,821.07958"
       orientation="1,0"
       id="guide28947"
       inkscape:locked="false" /><sodipodi:guide
       position="933.87314,268.39259"
       orientation="0,-1"
       id="guide28949"
       inkscape:locked="false" /><sodipodi:guide
       position="902.21584,294.66723"
       orientation="1,0"
       id="guide29047"
       inkscape:locked="false" /><sodipodi:guide
       position="1024.4848,151.72655"
       orientation="0,-1"
       id="guide29049"
       inkscape:locked="false" /><sodipodi:guide
       position="-699.74369,37.027228"
       orientation="1,0"
       id="guide29177"
       inkscape:locked="false" /><sodipodi:guide
       position="-126.58956,-182.08962"
       orientation="0,-1"
       id="guide29179"
       inkscape:locked="false" /><sodipodi:guide
       position="264.63254,-290.24005"
       orientation="0,-1"
       id="guide29181"
       inkscape:locked="false" /><sodipodi:guide
       position="-1261.5931,906.87038"
       orientation="1,0"
       id="guide29183"
       inkscape:locked="false" /><sodipodi:guide
       position="317.91914,226.35443"
       orientation="0,-1"
       id="guide18288"
       inkscape:locked="false" /><sodipodi:guide
       position="606.53784,1028.9205"
       orientation="0,-1"
       id="guide18320"
       inkscape:locked="false" /><sodipodi:guide
       position="-174.66076,588.3465"
       orientation="1,0"
       id="guide18322"
       inkscape:locked="false" /><sodipodi:guide
       position="-492.60848,390.61386"
       orientation="1,0"
       id="guide50044"
       inkscape:locked="false" /><sodipodi:guide
       position="698.83754,581.56204"
       orientation="1,0"
       id="guide2851"
       inkscape:locked="false" /><sodipodi:guide
       position="1102.5124,973.36418"
       orientation="0,-1"
       id="guide2907"
       inkscape:locked="false" /><sodipodi:guide
       position="860.57284,289.36212"
       orientation="0,-1"
       id="guide2909"
       inkscape:locked="false" /><sodipodi:guide
       position="1051.0168,744.47278"
       orientation="0,-1"
       id="guide2911"
       inkscape:locked="false" /></sodipodi:namedview><g
     inkscape:groupmode="layer"
     id="layer7"
     inkscape:label="6  ESCALAS MÃNIMAS"
     style="display:inline"
     transform="translate(-1428.0883,-1513.6381)"><g
       id="g1666"
       inkscape:label="ISOTIPO 30 PX"
       style="display:inline;stroke-width:18.6897"
       transform="matrix(0.05187326,0,0,0.05518965,1368.2704,1497.7542)"><g
         id="g1656"
         transform="matrix(0.77968761,0,0,0.77968761,334.55933,2189.9438)"
         style="stroke-width:23.9704"
         inkscape:label="comas"
         inkscape:export-filename="LOGOTIPO/ISOTIPO/ISOIPO_30PX.svg"
         inkscape:export-xdpi="96"
         inkscape:export-ydpi="96"><g
           aria-label=","
           transform="matrix(0.09269299,-0.99569474,-0.99569474,-0.09269299,0,0)"
           id="g1650"
           style="font-style:italic;font-weight:300;font-size:3285.95px;font-family:Lato;-inkscape-font-specification:'Lato,  weight=250 Italic';text-align:center;text-anchor:middle;fill:#1d428a;fill-opacity:1;stroke-width:23.9704"
           inkscape:label="bottom_coma"><path
             d="m 2096.0283,-1410.6628 q 0,-57.5041 39.4314,-98.5785 39.4314,-41.0743 103.5074,-41.0743 70.6479,0 108.4364,49.2892 39.4313,47.6463 39.4313,126.5091 0,67.362 -18.0727,136.3669 -16.4297,70.6479 -49.2892,138.0099 -32.8595,67.362 -78.8628,129.79503 -46.0033,62.43305 -101.8645,115.00825 l -26.2876,-24.64462 q -8.2148,-6.5719 -9.8578,-14.78678 -1.643,-6.5719 -1.643,-14.78677 0,-13.1438 24.6446,-44.36033 26.2876,-29.57355 57.5042,-77.21978 32.8595,-46.0033 62.433,-106.7934 29.5736,-60.7901 37.7884,-133.081 -9.8578,3.286 -23.0016,4.9289 -11.5008,1.643 -26.2876,1.643 -60.7901,0 -100.2215,-41.0744 -37.7884,-41.0743 -37.7884,-105.1504 z"
             id="path1648"
             style="fill:#1d428a;fill-opacity:1;stroke-width:23.9704" /></g><g
           aria-label=","
           transform="matrix(-0.05085568,0.99870601,0.99870601,0.05085568,0,0)"
           id="g1654"
           style="font-style:italic;font-weight:300;font-size:3285.95px;font-family:Lato;-inkscape-font-specification:'Lato,  weight=250 Italic';text-align:center;text-anchor:middle;fill:#1d428a;fill-opacity:1;stroke-width:23.9704"
           inkscape:label="top_coma"><path
             d="m -2486.9588,1114.182 q 0,-57.5042 39.4314,-98.5785 39.4314,-41.07441 103.5074,-41.07441 70.648,0 108.4364,49.28921 39.4314,47.6463 39.4314,126.5091 0,67.362 -18.0727,136.3669 -16.4298,70.648 -49.2893,138.0099 -32.8595,67.362 -78.8628,129.7951 -46.0033,62.433 -101.8644,115.0082 l -26.2876,-24.6446 q -8.2149,-6.5719 -9.8579,-14.7868 -1.643,-6.5719 -1.643,-14.7868 0,-13.1438 24.6447,-44.3603 26.2876,-29.5735 57.5041,-77.2198 32.8595,-46.0033 62.433,-106.7934 29.5736,-60.7901 37.7885,-133.081 -9.8579,3.286 -23.0017,4.929 -11.5008,1.6429 -26.2876,1.6429 -60.7901,0 -100.2215,-41.0743 -37.7884,-41.0744 -37.7884,-105.1504 z"
             id="path1652"
             style="fill:#1d428a;fill-opacity:1;stroke-width:23.9704" /></g></g><circle
         style="fill:#1d428a;fill-opacity:1;stroke-width:18.6897"
         id="circle1658"
         cx="1291.0338"
         cy="408.02213"
         r="120.21809"
         inkscape:label="primary_circle_left" /><circle
         style="fill:#1d428a;fill-opacity:1;stroke-width:18.6897"
         id="circle1660"
         cx="1591.781"
         cy="550.62225"
         r="120.21809"
         inkscape:label="primary_circle_rigth" /><circle
         style="fill:#e06287;fill-opacity:1;stroke-width:18.6897"
         id="circle1662"
         cx="1291.0338"
         cy="408.02213"
         r="90.163567"
         inkscape:label="inner_circle_left" /><circle
         style="fill:#ff6a43;fill-opacity:1;stroke-width:18.6897"
         id="circle1664"
         cx="1591.781"
         cy="550.62225"
         r="90.163567"
         inkscape:label="inner_circle_rigth" /></g><g
       id="g90592"
       inkscape:label="ISOTIPO 30 PX V1"
       style="display:inline;stroke-width:18.6897"
       transform="matrix(0.05187326,0,0,0.05518965,1367.9156,1523.2099)"
       inkscape:export-filename="ISOTIPO_30PX_V1.svg"
       inkscape:export-xdpi="96"
       inkscape:export-ydpi="96"><g
         id="g90582"
         transform="matrix(0.77968761,0,0,0.77968761,334.55933,2189.9438)"
         style="stroke-width:23.9704;fill:#ffffff"
         inkscape:label="comas"
         inkscape:export-filename="LOGOTIPO/ISOTIPO/ISOIPO_30PX.svg"
         inkscape:export-xdpi="96"
         inkscape:export-ydpi="96"><g
           aria-label=","
           transform="matrix(0.09269299,-0.99569474,-0.99569474,-0.09269299,0,0)"
           id="g90576"
           style="font-style:italic;font-weight:300;font-size:3285.95px;font-family:Lato;-inkscape-font-specification:'Lato,  weight=250 Italic';text-align:center;text-anchor:middle;fill:#ffffff;fill-opacity:1;stroke-width:23.9704"
           inkscape:label="bottom_coma"><path
             id="path90708"
             style="fill:#ffffff;fill-opacity:1;stroke-width:23.9704"
             d="m 2382.3287,-1306.7302 c -3.0121,22.7278 -7.5621,45.5733 -13.5864,68.5749 -10.9531,47.0986 -38.3321,78.4267 -60.2384,123.3347 -21.9063,44.9079 -37.2302,102.8612 -67.899,144.48315 -30.6689,41.622 -64.6372,79.96461 -101.878,115.01471 l -26.2863,-24.65999 c -5.4765,-4.38127 -8.7421,-9.31016 -9.8374,-14.78674 -1.0954,-4.38126 -1.631,-9.32219 -1.631,-14.79876 0,-8.76253 8.2136,-23.55164 24.6433,-44.36264 17.525,-19.71568 36.6562,-45.43264 57.4672,-77.19673 21.9063,-30.6689 42.7413,-66.2754 62.457,-106.8021 19.7157,-40.5267 32.3014,-84.8646 37.7779,-133.0585 -6.5718,2.1907 -14.2122,3.7984 -22.9747,4.8937 -7.6672,1.0953 -16.4638,1.6721 -26.3217,1.6721 -40.5267,0 -73.9125,-13.7125 -100.2001,-41.0954 -25.1922,-27.3828 -37.8045,-62.409 -37.8045,-105.1264 0,-38.336 13.1614,-71.2306 39.449,-98.6135 26.2876,-27.3829 60.799,-41.0455 103.5163,-41.0455 47.0986,0 83.2261,16.4214 108.4184,49.2808 26.2875,31.7642 39.4142,73.944 39.4142,126.5192 0,22.454 -1.4737,45.0452 -4.4858,67.773 z m -24.2369,-93.1933 c 5.9299,-63.6013 -40.8303,-119.964 -104.433,-125.879 -63.6015,-5.9269 -119.962,40.8359 -125.8741,104.4388 -5.9299,63.6013 40.8303,119.964 104.4329,125.879 63.6016,5.927 119.9621,-40.8358 125.8742,-104.4388 z"
             sodipodi:nodetypes="scsscccsccsccscssscssccccc" /></g><g
           aria-label=","
           transform="matrix(-0.05085568,0.99870601,0.99870601,0.05085568,0,0)"
           id="g90580"
           style="font-style:italic;font-weight:300;font-size:3285.95px;font-family:Lato;-inkscape-font-specification:'Lato,  weight=250 Italic';text-align:center;text-anchor:middle;fill:#ffffff;fill-opacity:1;stroke-width:23.9704"
           inkscape:label="top_coma"><path
             id="path90705"
             style="fill:#ffffff;fill-opacity:1;stroke-width:23.9704"
             d="m -2486.9387,1114.201 c 0,-38.3361 13.1381,-71.2332 39.4257,-98.6161 26.2876,-27.38287 60.7675,-41.05303 103.4848,-41.05303 47.0987,0 83.2367,16.42188 108.429,49.28133 26.2875,31.7642 39.4598,73.9445 39.4598,126.5197 0,44.9079 -6.0297,90.3519 -18.0782,136.3551 -10.9532,47.0986 -42.9802,86.2744 -64.8865,131.1823 -21.9063,44.908 -32.6118,95.0271 -63.2807,136.6492 -30.6688,41.6219 -64.5999,79.9225 -101.8406,114.9726 l -26.2865,-24.6449 c -5.4766,-4.3813 -8.7875,-9.291 -9.8828,-14.7676 -1.0953,-4.3813 -1.6559,-9.3072 -1.6559,-14.7838 0,-8.7625 8.2364,-23.5787 24.6662,-44.3897 17.5251,-19.7156 36.7029,-45.4289 57.5139,-77.1931 21.9063,-30.6688 42.7133,-66.2502 62.429,-106.7769 19.7157,-40.5267 32.2955,-84.8858 37.7721,-133.0797 -6.572,2.1907 -14.2121,3.8273 -22.9747,4.9227 -7.6672,1.0952 -16.4475,1.61 -26.3054,1.61 -40.5267,0 -73.924,-13.6951 -100.2115,-41.0779 -25.1923,-27.3829 -37.7777,-62.3929 -37.7777,-105.1102 z m 26.6103,-11.1685 c -3.2566,63.7763 45.7989,118.1197 109.5747,121.3864 63.7942,3.2545 118.1441,-45.8307 121.3837,-109.6256 3.2299,-63.7766 -45.8465,-118.09898 -109.6225,-121.34054 -63.7589,-3.22764 -118.0716,45.82264 -121.3359,109.57974 z"
             sodipodi:nodetypes="ssscscsscccsccsccscsccccc" /></g></g><path
         id="circle90584"
         style="fill:#ffffff;fill-opacity:1;stroke-width:18.6897"
         inkscape:label="primary_circle_left"
         d="M 1291.0231 287.79451 A 120.21809 120.21809 0 0 0 1170.8007 408.01208 A 120.21809 120.21809 0 0 0 1291.0231 528.22965 A 120.21809 120.21809 0 0 0 1411.2455 408.01208 A 120.21809 120.21809 0 0 0 1291.0231 287.79451 z M 1291.0231 317.87544 A 90.163567 90.163567 0 0 1 1381.1993 408.01208 A 90.163567 90.163567 0 0 1 1291.0231 498.1841 A 90.163567 90.163567 0 0 1 1200.8845 408.01208 A 90.163567 90.163567 0 0 1 1291.0231 317.87544 z " /><path
         id="circle90586"
         style="fill:#ffffff;fill-opacity:1;stroke-width:18.6897"
         inkscape:label="primary_circle_rigth"
         d="M 1591.7862 430.41353 A 120.21809 120.21809 0 0 0 1471.5638 550.6311 A 120.21809 120.21809 0 0 0 1591.7862 670.84867 A 120.21809 120.21809 0 0 0 1712.0086 550.6311 A 120.21809 120.21809 0 0 0 1591.7862 430.41353 z M 1591.7862 460.45907 A 90.163567 90.163567 0 0 1 1681.9624 550.6311 A 90.163567 90.163567 0 0 1 1591.7862 640.80312 A 90.163567 90.163567 0 0 1 1501.6099 550.6311 A 90.163567 90.163567 0 0 1 1591.7862 460.45907 z " /></g><g
       id="g90612"
       inkscape:label="ISOTIPO 30 PX V2"
       style="display:inline;stroke-width:18.6897"
       transform="matrix(0.05187326,0,0,0.05518965,1367.9156,1547.9779)"
       inkscape:export-filename="ISOTIPO_30PX_V2.svg"
       inkscape:export-xdpi="96"
       inkscape:export-ydpi="96"><g
         id="g90602"
         transform="matrix(0.77968761,0,0,0.77968761,334.55933,2189.9438)"
         style="stroke-width:23.9704"
         inkscape:label="comas"
         inkscape:export-filename="LOGOTIPO/ISOTIPO/ISOIPO_30PX.svg"
         inkscape:export-xdpi="96"
         inkscape:export-ydpi="96"><g
           aria-label=","
           transform="matrix(0.09269299,-0.99569474,-0.99569474,-0.09269299,0,0)"
           id="g90596"
           style="font-style:italic;font-weight:300;font-size:3285.95px;font-family:Lato;-inkscape-font-specification:'Lato,  weight=250 Italic';text-align:center;text-anchor:middle;fill:#ffffff;fill-opacity:1;stroke-width:23.9704"
           inkscape:label="bottom_coma"><path
             d="m 2096.0283,-1410.6628 q 0,-57.5041 39.4314,-98.5785 39.4314,-41.0743 103.5074,-41.0743 70.6479,0 108.4364,49.2892 39.4313,47.6463 39.4313,126.5091 0,67.362 -18.0727,136.3669 -16.4297,70.6479 -49.2892,138.0099 -32.8595,67.362 -78.8628,129.79503 -46.0033,62.43305 -101.8645,115.00825 l -26.2876,-24.64462 q -8.2148,-6.5719 -9.8578,-14.78678 -1.643,-6.5719 -1.643,-14.78677 0,-13.1438 24.6446,-44.36033 26.2876,-29.57355 57.5042,-77.21978 32.8595,-46.0033 62.433,-106.7934 29.5736,-60.7901 37.7884,-133.081 -9.8578,3.286 -23.0016,4.9289 -11.5008,1.643 -26.2876,1.643 -60.7901,0 -100.2215,-41.0744 -37.7884,-41.0743 -37.7884,-105.1504 z"
             id="path90594"
             style="fill:#ffffff;fill-opacity:1;stroke-width:23.9704" /></g><g
           aria-label=","
           transform="matrix(-0.05085568,0.99870601,0.99870601,0.05085568,0,0)"
           id="g90600"
           style="font-style:italic;font-weight:300;font-size:3285.95px;font-family:Lato;-inkscape-font-specification:'Lato,  weight=250 Italic';text-align:center;text-anchor:middle;fill:#ffffff;fill-opacity:1;stroke-width:23.9704"
           inkscape:label="top_coma"><path
             d="m -2486.9588,1114.182 q 0,-57.5042 39.4314,-98.5785 39.4314,-41.07441 103.5074,-41.07441 70.648,0 108.4364,49.28921 39.4314,47.6463 39.4314,126.5091 0,67.362 -18.0727,136.3669 -16.4298,70.648 -49.2893,138.0099 -32.8595,67.362 -78.8628,129.7951 -46.0033,62.433 -101.8644,115.0082 l -26.2876,-24.6446 q -8.2149,-6.5719 -9.8579,-14.7868 -1.643,-6.5719 -1.643,-14.7868 0,-13.1438 24.6447,-44.3603 26.2876,-29.5735 57.5041,-77.2198 32.8595,-46.0033 62.433,-106.7934 29.5736,-60.7901 37.7885,-133.081 -9.8579,3.286 -23.0017,4.929 -11.5008,1.6429 -26.2876,1.6429 -60.7901,0 -100.2215,-41.0743 -37.7884,-41.0744 -37.7884,-105.1504 z"
             id="path90598"
             style="fill:#ffffff;fill-opacity:1;stroke-width:23.9704" /></g></g><circle
         style="fill:#ffffff;fill-opacity:1;stroke-width:18.6897"
         id="circle90604"
         cx="1291.0338"
         cy="408.02213"
         r="120.21809"
         inkscape:label="primary_circle_left" /><circle
         style="fill:#ffffff;fill-opacity:1;stroke-width:18.6897"
         id="circle90606"
         cx="1591.781"
         cy="550.62225"
         r="120.21809"
         inkscape:label="primary_circle_rigth" /><circle
         style="fill:#e06287;fill-opacity:1;stroke-width:18.6897"
         id="circle90608"
         cx="1291.0338"
         cy="408.02213"
         r="90.163567"
         inkscape:label="inner_circle_left" /><circle
         style="fill:#ff6a43;fill-opacity:1;stroke-width:18.6897"
         id="circle90610"
         cx="1591.781"
         cy="550.62225"
         r="90.163567"
         inkscape:label="inner_circle_rigth" /></g><g
       id="g91648"
       inkscape:label="ISOTIPO 30 PX V3"
       style="display:inline;stroke-width:18.6897"
       transform="matrix(0.05187326,0,0,0.05518965,1367.9156,1573.1007)"
       inkscape:export-filename="ISOTIPO_30PX_V3.svg"
       inkscape:export-xdpi="96"
       inkscape:export-ydpi="96"><g
         id="g91638"
         transform="matrix(0.77968761,0,0,0.77968761,334.55933,2189.9438)"
         style="stroke-width:23.9704"
         inkscape:label="comas"
         inkscape:export-filename="LOGOTIPO/ISOTIPO/ISOIPO_30PX.svg"
         inkscape:export-xdpi="96"
         inkscape:export-ydpi="96"><g
           aria-label=","
           transform="matrix(0.09269299,-0.99569474,-0.99569474,-0.09269299,0,0)"
           id="g91632"
           style="font-style:italic;font-weight:300;font-size:3285.95px;font-family:Lato;-inkscape-font-specification:'Lato,  weight=250 Italic';text-align:center;text-anchor:middle;fill:#ffffff;fill-opacity:1;stroke-width:23.9704"
           inkscape:label="bottom_coma"><path
             d="m 2096.0283,-1410.6628 q 0,-57.5041 39.4314,-98.5785 39.4314,-41.0743 103.5074,-41.0743 70.6479,0 108.4364,49.2892 39.4313,47.6463 39.4313,126.5091 0,67.362 -18.0727,136.3669 -16.4297,70.6479 -49.2892,138.0099 -32.8595,67.362 -78.8628,129.79503 -46.0033,62.43305 -101.8645,115.00825 l -26.2876,-24.64462 q -8.2148,-6.5719 -9.8578,-14.78678 -1.643,-6.5719 -1.643,-14.78677 0,-13.1438 24.6446,-44.36033 26.2876,-29.57355 57.5042,-77.21978 32.8595,-46.0033 62.433,-106.7934 29.5736,-60.7901 37.7884,-133.081 -9.8578,3.286 -23.0016,4.9289 -11.5008,1.643 -26.2876,1.643 -60.7901,0 -100.2215,-41.0744 -37.7884,-41.0743 -37.7884,-105.1504 z"
             id="path91630"
             style="fill:#ffffff;fill-opacity:1;stroke-width:23.9704" /></g><g
           aria-label=","
           transform="matrix(-0.05085568,0.99870601,0.99870601,0.05085568,0,0)"
           id="g91636"
           style="font-style:italic;font-weight:300;font-size:3285.95px;font-family:Lato;-inkscape-font-specification:'Lato,  weight=250 Italic';text-align:center;text-anchor:middle;fill:#ffffff;fill-opacity:1;stroke-width:23.9704"
           inkscape:label="top_coma"><path
             d="m -2486.9588,1114.182 q 0,-57.5042 39.4314,-98.5785 39.4314,-41.07441 103.5074,-41.07441 70.648,0 108.4364,49.28921 39.4314,47.6463 39.4314,126.5091 0,67.362 -18.0727,136.3669 -16.4298,70.648 -49.2893,138.0099 -32.8595,67.362 -78.8628,129.7951 -46.0033,62.433 -101.8644,115.0082 l -26.2876,-24.6446 q -8.2149,-6.5719 -9.8579,-14.7868 -1.643,-6.5719 -1.643,-14.7868 0,-13.1438 24.6447,-44.3603 26.2876,-29.5735 57.5041,-77.2198 32.8595,-46.0033 62.433,-106.7934 29.5736,-60.7901 37.7885,-133.081 -9.8579,3.286 -23.0017,4.929 -11.5008,1.6429 -26.2876,1.6429 -60.7901,0 -100.2215,-41.0743 -37.7884,-41.0744 -37.7884,-105.1504 z"
             id="path91634"
             style="fill:#ffffff;fill-opacity:1;stroke-width:23.9704" /></g></g><circle
         style="fill:#ffffff;fill-opacity:1;stroke-width:18.6897"
         id="circle91640"
         cx="1291.0338"
         cy="408.02213"
         r="120.21809"
         inkscape:label="primary_circle_left" /><circle
         style="fill:#ffffff;fill-opacity:1;stroke-width:18.6897"
         id="circle91642"
         cx="1591.781"
         cy="550.62225"
         r="120.21809"
         inkscape:label="primary_circle_rigth" /><circle
         style="fill:#e06287;fill-opacity:1;stroke-width:18.6897"
         id="circle91644"
         cx="1291.0338"
         cy="408.02213"
         r="90.163567"
         inkscape:label="inner_circle_left" /><circle
         style="fill:#1d428a;fill-opacity:1;stroke-width:18.6897"
         id="circle91646"
         cx="1591.781"
         cy="550.62225"
         r="90.163567"
         inkscape:label="inner_circle_rigth" /></g><g
       id="g91806"
       inkscape:label="ISOTIPO 30 PX V4"
       style="display:inline;stroke-width:18.6897"
       transform="matrix(0.05187326,0,0,0.05518965,1366.2448,1598.0727)"
       inkscape:export-filename="ISOTIPO_30PX_V4.svg"
       inkscape:export-xdpi="96"
       inkscape:export-ydpi="96"><g
         id="g91796"
         transform="matrix(0.77968761,0,0,0.77968761,334.55933,2189.9438)"
         style="stroke-width:23.9704"
         inkscape:label="comas"
         inkscape:export-filename="LOGOTIPO/ISOTIPO/ISOIPO_30PX.svg"
         inkscape:export-xdpi="96"
         inkscape:export-ydpi="96"><g
           aria-label=","
           transform="matrix(0.09269299,-0.99569474,-0.99569474,-0.09269299,0,0)"
           id="g91790"
           style="font-style:italic;font-weight:300;font-size:3285.95px;font-family:Lato;-inkscape-font-specification:'Lato,  weight=250 Italic';text-align:center;text-anchor:middle;fill:#ffffff;fill-opacity:1;stroke-width:23.9704"
           inkscape:label="bottom_coma"><path
             d="m 2096.0283,-1410.6628 q 0,-57.5041 39.4314,-98.5785 39.4314,-41.0743 103.5074,-41.0743 70.6479,0 108.4364,49.2892 39.4313,47.6463 39.4313,126.5091 0,67.362 -18.0727,136.3669 -16.4297,70.6479 -49.2892,138.0099 -32.8595,67.362 -78.8628,129.79503 -46.0033,62.43305 -101.8645,115.00825 l -26.2876,-24.64462 q -8.2148,-6.5719 -9.8578,-14.78678 -1.643,-6.5719 -1.643,-14.78677 0,-13.1438 24.6446,-44.36033 26.2876,-29.57355 57.5042,-77.21978 32.8595,-46.0033 62.433,-106.7934 29.5736,-60.7901 37.7884,-133.081 -9.8578,3.286 -23.0016,4.9289 -11.5008,1.643 -26.2876,1.643 -60.7901,0 -100.2215,-41.0744 -37.7884,-41.0743 -37.7884,-105.1504 z"
             id="path91788"
             style="fill:#ffffff;fill-opacity:1;stroke-width:23.9704" /></g><g
           aria-label=","
           transform="matrix(-0.05085568,0.99870601,0.99870601,0.05085568,0,0)"
           id="g91794"
           style="font-style:italic;font-weight:300;font-size:3285.95px;font-family:Lato;-inkscape-font-specification:'Lato,  weight=250 Italic';text-align:center;text-anchor:middle;fill:#ffffff;fill-opacity:1;stroke-width:23.9704"
           inkscape:label="top_coma"><path
             d="m -2486.9588,1114.182 q 0,-57.5042 39.4314,-98.5785 39.4314,-41.07441 103.5074,-41.07441 70.648,0 108.4364,49.28921 39.4314,47.6463 39.4314,126.5091 0,67.362 -18.0727,136.3669 -16.4298,70.648 -49.2893,138.0099 -32.8595,67.362 -78.8628,129.7951 -46.0033,62.433 -101.8644,115.0082 l -26.2876,-24.6446 q -8.2149,-6.5719 -9.8579,-14.7868 -1.643,-6.5719 -1.643,-14.7868 0,-13.1438 24.6447,-44.3603 26.2876,-29.5735 57.5041,-77.2198 32.8595,-46.0033 62.433,-106.7934 29.5736,-60.7901 37.7885,-133.081 -9.8579,3.286 -23.0017,4.929 -11.5008,1.6429 -26.2876,1.6429 -60.7901,0 -100.2215,-41.0743 -37.7884,-41.0744 -37.7884,-105.1504 z"
             id="path91792"
             style="fill:#ffffff;fill-opacity:1;stroke-width:23.9704" /></g></g><circle
         style="fill:#ffffff;fill-opacity:1;stroke-width:18.6897"
         id="circle91798"
         cx="1291.0338"
         cy="408.02213"
         r="120.21809"
         inkscape:label="primary_circle_left" /><circle
         style="fill:#ffffff;fill-opacity:1;stroke-width:18.6897"
         id="circle91800"
         cx="1591.781"
         cy="550.62225"
         r="120.21809"
         inkscape:label="primary_circle_rigth" /><circle
         style="fill:#1d428a;fill-opacity:1;stroke-width:18.6897"
         id="circle91802"
         cx="1291.0338"
         cy="408.02213"
         r="90.163567"
         inkscape:label="inner_circle_left" /><circle
         style="fill:#ff6a43;fill-opacity:1;stroke-width:18.6897"
         id="circle91804"
         cx="1591.781"
         cy="550.62225"
         r="90.163567"
         inkscape:label="inner_circle_rigth" /></g><g
       id="g91576"
       inkscape:label="ISOTIPO 30 PX V5"
       style="display:inline;stroke-width:18.6897;fill:#000000"
       transform="matrix(0.05187326,0,0,0.05518965,1367.7017,1630.9175)"
       inkscape:export-filename="ISOTIPO_30PX_V5.svg"
       inkscape:export-xdpi="96"
       inkscape:export-ydpi="96"><g
         id="g91570"
         transform="matrix(0.77968761,0,0,0.77968761,334.55933,2189.9438)"
         style="fill:#000000;stroke-width:23.9704"
         inkscape:label="comas"
         inkscape:export-filename="LOGOTIPO/ISOTIPO/ISOIPO_30PX.svg"
         inkscape:export-xdpi="96"
         inkscape:export-ydpi="96"><g
           aria-label=","
           transform="matrix(0.09269299,-0.99569474,-0.99569474,-0.09269299,0,0)"
           id="g91564"
           style="font-style:italic;font-weight:300;font-size:3285.95px;font-family:Lato;-inkscape-font-specification:'Lato,  weight=250 Italic';text-align:center;text-anchor:middle;fill:#000000;fill-opacity:1;stroke-width:23.9704"
           inkscape:label="bottom_coma"><path
             id="path91562"
             style="fill:#000000;fill-opacity:1;stroke-width:23.9704"
             d="m 2382.3287,-1306.7302 c -3.0121,22.7278 -7.5621,45.5733 -13.5864,68.5749 -10.9531,47.0986 -38.3321,78.4267 -60.2384,123.3347 -21.9063,44.9079 -37.2302,102.8612 -67.899,144.48315 -30.6689,41.622 -64.6372,79.96461 -101.878,115.01471 l -26.2863,-24.65999 c -5.4765,-4.38127 -8.7421,-9.31016 -9.8374,-14.78674 -1.0954,-4.38126 -1.631,-9.32219 -1.631,-14.79876 0,-8.76253 8.2136,-23.55164 24.6433,-44.36264 17.525,-19.71568 36.6562,-45.43264 57.4672,-77.19673 21.9063,-30.6689 42.7413,-66.2754 62.457,-106.8021 19.7157,-40.5267 32.3014,-84.8646 37.7779,-133.0585 -6.5718,2.1907 -14.2122,3.7984 -22.9747,4.8937 -7.6672,1.0953 -16.4638,1.6721 -26.3217,1.6721 -40.5267,0 -73.9125,-13.7125 -100.2001,-41.0954 -25.1922,-27.3828 -37.8045,-62.409 -37.8045,-105.1264 0,-38.336 13.1614,-71.2306 39.449,-98.6135 26.2876,-27.3829 60.799,-41.0455 103.5163,-41.0455 47.0986,0 83.2261,16.4214 108.4184,49.2808 26.2875,31.7642 39.4142,73.944 39.4142,126.5192 0,22.454 -1.4737,45.0452 -4.4858,67.773 z m -24.2369,-93.1933 c 5.9299,-63.6013 -40.8303,-119.964 -104.433,-125.879 -63.6015,-5.9269 -119.962,40.8359 -125.8741,104.4388 -5.9299,63.6013 40.8303,119.964 104.4329,125.879 63.6016,5.927 119.9621,-40.8358 125.8742,-104.4388 z"
             sodipodi:nodetypes="scsscccsccsccscssscssccccc" /></g><g
           aria-label=","
           transform="matrix(-0.05085568,0.99870601,0.99870601,0.05085568,0,0)"
           id="g91568"
           style="font-style:italic;font-weight:300;font-size:3285.95px;font-family:Lato;-inkscape-font-specification:'Lato,  weight=250 Italic';text-align:center;text-anchor:middle;fill:#000000;fill-opacity:1;stroke-width:23.9704"
           inkscape:label="top_coma"><path
             id="path91566"
             style="fill:#000000;fill-opacity:1;stroke-width:23.9704"
             d="m -2486.9387,1114.201 c 0,-38.3361 13.1381,-71.2332 39.4257,-98.6161 26.2876,-27.38287 60.7675,-41.05303 103.4848,-41.05303 47.0987,0 83.2367,16.42188 108.429,49.28133 26.2875,31.7642 39.4598,73.9445 39.4598,126.5197 0,44.9079 -6.0297,90.3519 -18.0782,136.3551 -10.9532,47.0986 -42.9802,86.2744 -64.8865,131.1823 -21.9063,44.908 -32.6118,95.0271 -63.2807,136.6492 -30.6688,41.6219 -64.5999,79.9225 -101.8406,114.9726 l -26.2865,-24.6449 c -5.4766,-4.3813 -8.7875,-9.291 -9.8828,-14.7676 -1.0953,-4.3813 -1.6559,-9.3072 -1.6559,-14.7838 0,-8.7625 8.2364,-23.5787 24.6662,-44.3897 17.5251,-19.7156 36.7029,-45.4289 57.5139,-77.1931 21.9063,-30.6688 42.7133,-66.2502 62.429,-106.7769 19.7157,-40.5267 32.2955,-84.8858 37.7721,-133.0797 -6.572,2.1907 -14.2121,3.8273 -22.9747,4.9227 -7.6672,1.0952 -16.4475,1.61 -26.3054,1.61 -40.5267,0 -73.924,-13.6951 -100.2115,-41.0779 -25.1923,-27.3829 -37.7777,-62.3929 -37.7777,-105.1102 z m 26.6103,-11.1685 c -3.2566,63.7763 45.7989,118.1197 109.5747,121.3864 63.7942,3.2545 118.1441,-45.8307 121.3837,-109.6256 3.2299,-63.7766 -45.8465,-118.09898 -109.6225,-121.34054 -63.7589,-3.22764 -118.0716,45.82264 -121.3359,109.57974 z"
             sodipodi:nodetypes="ssscscsscccsccsccscsccccc" /></g></g><path
         id="path91572"
         style="fill:#000000;fill-opacity:1;stroke-width:18.6897"
         inkscape:label="primary_circle_left"
         d="m 1291.0231,287.79451 a 120.21809,120.21809 0 0 0 -120.2224,120.21757 120.21809,120.21809 0 0 0 120.2224,120.21757 120.21809,120.21809 0 0 0 120.2224,-120.21757 120.21809,120.21809 0 0 0 -120.2224,-120.21757 z m 0,30.08093 a 90.163567,90.163567 0 0 1 90.1762,90.13664 90.163567,90.163567 0 0 1 -90.1762,90.17202 90.163567,90.163567 0 0 1 -90.1386,-90.17202 90.163567,90.163567 0 0 1 90.1386,-90.13664 z" /><path
         id="path91574"
         style="fill:#000000;fill-opacity:1;stroke-width:18.6897"
         inkscape:label="primary_circle_rigth"
         d="M 1591.7862,430.41353 A 120.21809,120.21809 0 0 0 1471.5638,550.6311 120.21809,120.21809 0 0 0 1591.7862,670.84867 120.21809,120.21809 0 0 0 1712.0086,550.6311 120.21809,120.21809 0 0 0 1591.7862,430.41353 Z m 0,30.04554 a 90.163567,90.163567 0 0 1 90.1762,90.17203 90.163567,90.163567 0 0 1 -90.1762,90.17202 90.163567,90.163567 0 0 1 -90.1763,-90.17202 90.163567,90.163567 0 0 1 90.1763,-90.17203 z" /></g></g></svg>
