<?xml version="1.0" encoding="UTF-8" standalone="no"?>
<!-- Created with Inkscape (http://www.inkscape.org/) -->

<svg
   version="1.1"
   id="svg2"
   width="75"
   height="52.849609"
   viewBox="0 0 75 52.849609"
   sodipodi:docname="ISOTIPO_75PX.svg"
   xml:space="preserve"
   inkscape:export-filename="ISOTIPO_75PX_V3.svg"
   inkscape:export-xdpi="96"
   inkscape:export-ydpi="96"
   inkscape:version="1.2.2 (b0a8486541, 2022-12-01)"
   xmlns:inkscape="http://www.inkscape.org/namespaces/inkscape"
   xmlns:sodipodi="http://sodipodi.sourceforge.net/DTD/sodipodi-0.dtd"
   xmlns="http://www.w3.org/2000/svg"
   xmlns:svg="http://www.w3.org/2000/svg"><defs
     id="defs6" /><sodipodi:namedview
     id="namedview4"
     pagecolor="#ffffff"
     bordercolor="#000000"
     borderopacity="0.25"
     inkscape:showpageshadow="2"
     inkscape:pageopacity="0.0"
     inkscape:pagecheckerboard="0"
     inkscape:deskcolor="#d1d1d1"
     showgrid="false"
     showguides="false"
     inkscape:zoom="0.20844919"
     inkscape:cx="2386.6728"
     inkscape:cy="1009.8384"
     inkscape:window-width="1360"
     inkscape:window-height="731"
     inkscape:window-x="0"
     inkscape:window-y="0"
     inkscape:window-maximized="1"
     inkscape:current-layer="g4463"><inkscape:grid
       type="xygrid"
       id="grid295" /><sodipodi:guide
       position="-2439.8325,914.30249"
       orientation="0,2880"
       id="guide297"
       inkscape:locked="false" /><sodipodi:guide
       position="440.16748,914.30249"
       orientation="1920,0"
       id="guide299"
       inkscape:locked="false" /><sodipodi:guide
       position="440.16748,-1005.6975"
       orientation="0,-2880"
       id="guide301"
       inkscape:locked="false" /><sodipodi:guide
       position="-2439.8325,-1005.6975"
       orientation="-1920,0"
       id="guide303"
       inkscape:locked="false" /><sodipodi:guide
       position="-522.42162,-193.40007"
       orientation="1,0"
       id="guide7706"
       inkscape:locked="false" /><sodipodi:guide
       position="-998.10332,-390.69644"
       orientation="1,0"
       id="guide2530"
       inkscape:locked="false" /><sodipodi:guide
       position="-561.61942,200.60449"
       orientation="1,0"
       id="guide28947"
       inkscape:locked="false" /><sodipodi:guide
       position="-77.871119,-352.08251"
       orientation="0,-1"
       id="guide28949"
       inkscape:locked="false" /><sodipodi:guide
       position="-109.52842,-325.80787"
       orientation="1,0"
       id="guide29047"
       inkscape:locked="false" /><sodipodi:guide
       position="12.740581,-468.74855"
       orientation="0,-1"
       id="guide29049"
       inkscape:locked="false" /><sodipodi:guide
       position="-1711.488,-583.44787"
       orientation="1,0"
       id="guide29177"
       inkscape:locked="false" /><sodipodi:guide
       position="-1138.3338,-802.56472"
       orientation="0,-1"
       id="guide29179"
       inkscape:locked="false" /><sodipodi:guide
       position="-747.11172,-910.71515"
       orientation="0,-1"
       id="guide29181"
       inkscape:locked="false" /><sodipodi:guide
       position="-2273.3374,286.39529"
       orientation="1,0"
       id="guide29183"
       inkscape:locked="false" /><sodipodi:guide
       position="-693.82512,-394.12067"
       orientation="0,-1"
       id="guide18288"
       inkscape:locked="false" /><sodipodi:guide
       position="-405.20642,408.44539"
       orientation="0,-1"
       id="guide18320"
       inkscape:locked="false" /><sodipodi:guide
       position="-1186.405,-32.12859"
       orientation="1,0"
       id="guide18322"
       inkscape:locked="false" /><sodipodi:guide
       position="-1504.3528,-229.86123"
       orientation="1,0"
       id="guide50044"
       inkscape:locked="false" /><sodipodi:guide
       position="-312.90672,-38.91305"
       orientation="1,0"
       id="guide2851"
       inkscape:locked="false" /><sodipodi:guide
       position="90.768181,352.88909"
       orientation="0,-1"
       id="guide2907"
       inkscape:locked="false" /><sodipodi:guide
       position="-151.17142,-331.11298"
       orientation="0,-1"
       id="guide2909"
       inkscape:locked="false" /><sodipodi:guide
       position="39.272581,123.99769"
       orientation="0,-1"
       id="guide2911"
       inkscape:locked="false" /></sodipodi:namedview><g
     inkscape:groupmode="layer"
     id="layer7"
     inkscape:label="6  ESCALAS MÃNIMAS"
     style="display:inline"
     transform="translate(-2439.8326,-861.45288)"><g
       id="g284"
       inkscape:label="ISOTIPO 75 PX V1"
       style="display:inline;fill:#ffffff;stroke-width:7.41746"
       transform="matrix(0.13070427,0,0,0.13906054,2289.1102,821.43085)"><g
         id="g274"
         transform="matrix(0.77359629,0,0,0.77359629,340.95461,2175.0833)"
         style="fill:#ffffff;stroke-width:9.58816"
         inkscape:label="comas"
         inkscape:export-filename="LOGOTIPO/ISOTIPO/ISOTIPO_20MM.svg"
         inkscape:export-xdpi="96"
         inkscape:export-ydpi="96"><g
           aria-label=","
           transform="matrix(0.09269299,-0.99569474,-0.99569474,-0.09269299,0,0)"
           id="g268"
           style="font-style:italic;font-weight:300;font-size:3285.95px;font-family:Lato;-inkscape-font-specification:'Lato,  weight=250 Italic';text-align:center;text-anchor:middle;fill:#ffffff;fill-opacity:1;stroke-width:9.58816"
           inkscape:label="bottom_coma"><path
             id="path266"
             style="fill:#ffffff;fill-opacity:1;stroke-width:9.58816"
             d="m 2382.3097,-1306.74 c -3.0122,22.7278 -7.5278,45.5959 -13.5521,68.5975 -10.9531,47.0985 -39.0145,81.1272 -60.9208,126.0352 -21.9063,44.9079 -36.5641,100.1398 -67.2329,141.76175 -30.6689,41.62199 -64.6182,79.95668 -101.859,115.00678 l -26.2791,-24.63992 c -5.4765,-4.38126 -8.7782,-9.31352 -9.8736,-14.7901 -1.0953,-4.38126 -1.6327,-9.30296 -1.6327,-14.77953 0,-8.76253 8.2136,-23.55164 24.6433,-44.36264 17.525,-19.71568 36.6869,-45.46859 57.4979,-77.23274 21.9063,-30.6688 42.7215,-66.2578 62.4371,-106.7845 19.7157,-40.5267 32.3123,-84.883 37.7888,-133.0769 -6.5719,2.1907 -14.233,3.8256 -22.9955,4.9208 -7.6672,1.0954 -16.4431,1.645 -26.3009,1.645 -40.5267,0 -73.9333,-13.6853 -100.2209,-41.0682 -25.1922,-27.3829 -37.7837,-62.4362 -37.7837,-105.1536 0,-38.336 13.1406,-71.2035 39.4282,-98.5864 26.2876,-27.3828 60.7927,-41.0752 103.5099,-41.0752 47.0986,0 83.2515,16.4432 108.4438,49.3027 26.2875,31.7641 39.4241,73.9352 39.4241,126.5103 0,22.454 -1.5098,45.0419 -4.5219,67.7697 z m -24.2198,-93.182 c 5.9123,-63.5845 -40.8342,-119.9252 -104.4176,-125.8485 -63.5903,-5.9258 -119.9445,40.8198 -125.8714,104.41 -5.9242,63.598 40.8349,119.9547 104.4338,125.8694 63.5917,5.916 119.9389,-40.8392 125.8552,-104.4309 z"
             sodipodi:nodetypes="scsscccsccsccscssscssccccc" /></g><g
           aria-label=","
           transform="matrix(-0.05085568,0.99870601,0.99870601,0.05085568,0,0)"
           id="g272"
           style="font-style:italic;font-weight:300;font-size:3285.95px;font-family:Lato;-inkscape-font-specification:'Lato,  weight=250 Italic';text-align:center;text-anchor:middle;fill:#ffffff;fill-opacity:1;stroke-width:9.58816"
           inkscape:label="top_coma"><path
             id="path270"
             style="fill:#ffffff;fill-opacity:1;stroke-width:9.58816"
             d="m -2486.9546,1114.1889 c 0,-38.3361 13.1458,-71.2039 39.4334,-98.5867 26.2876,-27.38293 60.7776,-41.07193 103.4949,-41.07193 47.0986,0 83.2452,16.43199 108.4374,49.29143 26.2876,31.7642 39.4422,73.934 39.4422,126.5091 0,44.908 -6.0211,90.362 -18.0696,136.3653 -10.9532,47.0986 -33.7845,77.2734 -55.6908,122.1813 -21.9063,44.908 -41.8065,104.0088 -72.4754,145.6309 -30.6688,41.6219 -64.6195,79.9505 -101.8602,115.0006 l -26.2865,-24.6449 c -5.4766,-4.3813 -8.7679,-9.319 -9.8632,-14.7956 -1.0953,-4.3812 -1.6287,-9.3058 -1.6287,-14.7824 0,-8.7625 8.2073,-23.5415 24.637,-44.3525 17.5251,-19.7156 36.6954,-45.4583 57.5064,-77.2225 21.9063,-30.6688 42.7142,-66.2696 62.4299,-106.7963 19.7157,-40.5266 32.3136,-84.8848 37.7902,-133.0787 -6.5719,2.1907 -14.2483,3.8255 -23.0109,4.9208 -7.6672,1.0953 -16.4218,1.6404 -26.2797,1.6404 -40.5267,0 -73.934,-13.6763 -100.2216,-41.0591 -25.1922,-27.383 -37.7848,-62.4319 -37.7848,-105.1492 z m 26.5999,-11.1401 c -3.2409,63.7835 45.838,118.1178 109.6215,121.3598 63.7763,3.2435 118.1094,-45.8219 121.364,-109.5976 3.2516,-63.7835 -45.819,-118.12623 -109.6024,-121.37821 -63.7904,-3.25428 -118.1384,45.82511 -121.3831,109.61601 z"
             sodipodi:nodetypes="ssscscsscccsccsccscsccccc" /></g></g><path
         id="circle276"
         style="fill:#ffffff;fill-opacity:1;stroke-width:7.41746"
         inkscape:label="primary_circle_left"
         d="m 1289.9596,287.80294 a 119.27888,119.27888 0 0 0 -119.2757,119.28539 119.27888,119.27888 0 0 0 119.2757,119.27134 119.27888,119.27888 0 0 0 119.2757,-119.27134 119.27888,119.27888 0 0 0 -119.2757,-119.28539 z m 0,29.81783 a 89.45916,89.45916 0 0 1 89.4493,89.46756 89.45916,89.45916 0 0 1 -89.4493,89.4535 89.45916,89.45916 0 0 1 -89.4642,-89.4535 89.45916,89.45916 0 0 1 89.4642,-89.46756 z" /><path
         id="circle278"
         style="fill:#ffffff;fill-opacity:1;stroke-width:7.41746"
         inkscape:label="primary_circle_rigth"
         d="M 1588.3581,429.2937 A 119.27888,119.27888 0 0 0 1469.0824,548.56504 119.27888,119.27888 0 0 0 1588.3581,667.85043 119.27888,119.27888 0 0 0 1707.6338,548.56504 119.27888,119.27888 0 0 0 1588.3581,429.2937 Z m 0,29.81783 a 89.45916,89.45916 0 0 1 89.4493,89.45351 89.45916,89.45916 0 0 1 -89.4493,89.46755 89.45916,89.45916 0 0 1 -89.4643,-89.46755 89.45916,89.45916 0 0 1 89.4643,-89.45351 z" /></g></g></svg>
