<?xml version="1.0" encoding="UTF-8" standalone="no"?>
<!-- Created with Inkscape (http://www.inkscape.org/) -->

<svg
   version="1.1"
   id="svg2"
   width="944.99976"
   height="225.23926"
   viewBox="0 0 944.99976 225.23926"
   sodipodi:docname="LOGO_HORIZONTAL_TAGLINE_945PX.svg"
   xml:space="preserve"
   inkscape:export-filename="LOGOTIPO/ISOTIPO/ISOTIPO_30PX.svg"
   inkscape:export-xdpi="96"
   inkscape:export-ydpi="96"
   inkscape:version="1.2.2 (b0a8486541, 2022-12-01)"
   xmlns:inkscape="http://www.inkscape.org/namespaces/inkscape"
   xmlns:sodipodi="http://sodipodi.sourceforge.net/DTD/sodipodi-0.dtd"
   xmlns="http://www.w3.org/2000/svg"
   xmlns:svg="http://www.w3.org/2000/svg"><defs
     id="defs6" /><sodipodi:namedview
     id="namedview4"
     pagecolor="#ffffff"
     bordercolor="#000000"
     borderopacity="0.25"
     inkscape:showpageshadow="2"
     inkscape:pageopacity="0.0"
     inkscape:pagecheckerboard="0"
     inkscape:deskcolor="#d1d1d1"
     showgrid="false"
     showguides="false"
     inkscape:zoom="0.20844919"
     inkscape:cx="2386.6728"
     inkscape:cy="1009.8384"
     inkscape:window-width="1360"
     inkscape:window-height="731"
     inkscape:window-x="0"
     inkscape:window-y="0"
     inkscape:window-maximized="1"
     inkscape:current-layer="g4463"><inkscape:grid
       type="xygrid"
       id="grid295" /><sodipodi:guide
       position="-1665.1014,2497.799"
       orientation="0,2880"
       id="guide297"
       inkscape:locked="false" /><sodipodi:guide
       position="1214.8986,2497.799"
       orientation="1920,0"
       id="guide299"
       inkscape:locked="false" /><sodipodi:guide
       position="1214.8986,577.79893"
       orientation="0,-2880"
       id="guide301"
       inkscape:locked="false" /><sodipodi:guide
       position="-1665.1014,577.79893"
       orientation="-1920,0"
       id="guide303"
       inkscape:locked="false" /><sodipodi:guide
       position="252.30952,1390.0964"
       orientation="1,0"
       id="guide7706"
       inkscape:locked="false" /><sodipodi:guide
       position="-223.37219,1192.8"
       orientation="1,0"
       id="guide2530"
       inkscape:locked="false" /><sodipodi:guide
       position="213.11172,1784.1009"
       orientation="1,0"
       id="guide28947"
       inkscape:locked="false" /><sodipodi:guide
       position="696.86001,1231.4139"
       orientation="0,-1"
       id="guide28949"
       inkscape:locked="false" /><sodipodi:guide
       position="665.20271,1257.6886"
       orientation="1,0"
       id="guide29047"
       inkscape:locked="false" /><sodipodi:guide
       position="787.47171,1114.7479"
       orientation="0,-1"
       id="guide29049"
       inkscape:locked="false" /><sodipodi:guide
       position="-936.75684,1000.0486"
       orientation="1,0"
       id="guide29177"
       inkscape:locked="false" /><sodipodi:guide
       position="-363.60269,780.93172"
       orientation="0,-1"
       id="guide29179"
       inkscape:locked="false" /><sodipodi:guide
       position="27.619411,672.78129"
       orientation="0,-1"
       id="guide29181"
       inkscape:locked="false" /><sodipodi:guide
       position="-1498.6062,1869.8917"
       orientation="1,0"
       id="guide29183"
       inkscape:locked="false" /><sodipodi:guide
       position="80.906011,1189.3758"
       orientation="0,-1"
       id="guide18288"
       inkscape:locked="false" /><sodipodi:guide
       position="369.52472,1991.9418"
       orientation="0,-1"
       id="guide18320"
       inkscape:locked="false" /><sodipodi:guide
       position="-411.67389,1551.3679"
       orientation="1,0"
       id="guide18322"
       inkscape:locked="false" /><sodipodi:guide
       position="-729.62163,1353.6352"
       orientation="1,0"
       id="guide50044"
       inkscape:locked="false" /><sodipodi:guide
       position="461.82442,1544.5834"
       orientation="1,0"
       id="guide2851"
       inkscape:locked="false" /><sodipodi:guide
       position="865.49931,1936.3855"
       orientation="0,-1"
       id="guide2907"
       inkscape:locked="false" /><sodipodi:guide
       position="623.55972,1252.3835"
       orientation="0,-1"
       id="guide2909"
       inkscape:locked="false" /><sodipodi:guide
       position="814.00371,1707.4941"
       orientation="0,-1"
       id="guide2911"
       inkscape:locked="false" /></sodipodi:namedview><g
     inkscape:groupmode="layer"
     id="layer7"
     inkscape:label="6  ESCALAS MÍNIMAS"
     style="display:inline"
     transform="translate(-1665.1014,-2272.5597)"><g
       id="g584"
       inkscape:label=" LOGO HORIZONTAL TAGLINE 945PX V5"
       style="display:inline;fill:#000000"
       transform="translate(1367.1365,1522.6421)"><g
         inkscape:groupmode="layer"
         id="g582"
         inkscape:label="LOGOTIPO HORIZONTAL TAGLINE"
         style="display:inline;fill:#000000;stroke-width:2.57447"
         transform="matrix(0.38842877,0,0,0.38842877,122.8566,500.97602)"
         inkscape:export-filename="../Manual Identidad Marca/LOGO_HORIZONTAL_TAGLINE.svg"
         inkscape:export-xdpi="96"
         inkscape:export-ydpi="96"><text
           xml:space="preserve"
           style="font-style:italic;font-weight:300;font-size:81.3434px;font-family:Lato;-inkscape-font-specification:'Lato,  weight=250 Italic';text-align:center;text-anchor:middle;display:inline;opacity:1;fill:#000000;fill-opacity:1;stroke:none;stroke-width:2.57448;stroke-opacity:1"
           x="1663.4454"
           y="1219.1323"
           id="text560"
           inkscape:label="TAGLINE"
           transform="scale(0.99919444,1.0008062)"><tspan
             sodipodi:role="line"
             id="tspan558"
             x="1663.4454"
             y="1219.1323"
             style="font-style:normal;font-variant:normal;font-weight:bold;font-stretch:normal;font-size:81.3434px;font-family:Lato;-inkscape-font-specification:'Lato, Bold';font-variant-ligatures:normal;font-variant-caps:normal;font-variant-numeric:normal;font-variant-east-asian:normal;fill:#000000;fill-opacity:1;stroke-width:2.57448">CENTRO DE ORIENTACIÓN MATRIMONIAL ASISTIDA</tspan></text><g
           id="g576"
           inkscape:label="LOGO"
           style="display:inline;fill:#000000;stroke-width:2.68238"
           transform="matrix(0.93049303,0,0,0.98998185,-622.19025,355.97461)"><g
             id="g570"
             transform="matrix(0.77968761,0,0,0.77968761,334.55933,2189.9438)"
             style="fill:#000000;stroke-width:3.44028"
             inkscape:label="comas"><g
               aria-label=","
               transform="matrix(0.09269299,-0.99569474,-0.99569474,-0.09269299,0,0)"
               id="g564"
               style="font-style:italic;font-weight:300;font-size:3285.95px;font-family:Lato;-inkscape-font-specification:'Lato,  weight=250 Italic';text-align:center;text-anchor:middle;fill:#000000;fill-opacity:1;stroke-width:3.44028"
               inkscape:label="bottom_coma"><path
                 id="path562"
                 style="fill:#000000;fill-opacity:1;stroke-width:3.44028"
                 d="m 2385.7079,-1340.7348 c -2.2591,33.8863 -7.9067,68.0816 -16.943,102.584 -10.9531,47.0985 -39.1785,65.0332 -61.0848,109.9411 -21.9063,44.908 -36.3984,116.2401 -67.0672,157.86209 -30.6689,41.62199 -64.6294,79.9602 -101.8701,115.01029 l -26.2835,-24.64479 c -5.4765,-4.38126 -8.7619,-9.30696 -9.8572,-14.78354 -1.0953,-4.38126 -1.6456,-9.31517 -1.6456,-14.79175 0,-8.76252 8.2169,-23.54578 24.6466,-44.35678 17.5251,-19.71568 36.6899,-45.45878 57.5009,-77.22292 21.9063,-30.6688 42.7167,-66.266 62.4323,-106.7927 19.7158,-40.5266 32.317,-84.8863 37.7936,-133.0802 -6.5719,2.1907 -14.242,3.8353 -23.0045,4.9306 -7.6672,1.0953 -16.4321,1.6385 -26.2899,1.6385 -40.5267,0 -73.9281,-13.6877 -100.2156,-41.0706 -25.1923,-27.3829 -37.7946,-62.4356 -37.7946,-105.153 0,-38.336 13.1483,-71.1929 39.4359,-98.5758 26.2876,-27.3829 60.7881,-41.0737 103.5054,-41.0737 47.0986,0 83.2474,16.4319 108.4397,49.2913 26.2875,31.7642 39.4312,73.9327 39.4312,126.5079 0,11.227 -0.3766,22.4845 -1.1296,33.78 z m -27.6152,-59.183 c 5.9202,-63.5924 -40.8331,-119.9433 -104.4257,-125.8622 -63.5924,-5.9212 -119.9439,40.8312 -125.8639,104.4237 -5.9202,63.5924 40.8331,119.9433 104.4257,125.8622 63.5924,5.9212 119.9439,-40.8312 125.8639,-104.4237 z"
                 sodipodi:nodetypes="scsscccsccsccscssscssscscs" /></g><g
               aria-label=","
               transform="matrix(-0.05085568,0.99870601,0.99870601,0.05085568,0,0)"
               id="g568"
               style="font-style:italic;font-weight:300;font-size:3285.95px;font-family:Lato;-inkscape-font-specification:'Lato,  weight=250 Italic';text-align:center;text-anchor:middle;fill:#000000;fill-opacity:1;stroke-width:3.44028"
               inkscape:label="top_coma"><path
                 id="path566"
                 style="fill:#000000;fill-opacity:1;stroke-width:3.44028"
                 d="m -2486.346,1100.0635 c 2.8752,-32.3461 15.8177,-60.4985 38.8194,-84.4585 26.2875,-27.38293 60.7905,-41.07326 103.5078,-41.07326 47.0986,0 83.2442,16.42472 108.4364,49.28416 26.2876,31.7642 39.4324,73.9398 39.4324,126.515 0,44.9079 -6.0232,90.3597 -18.0717,136.363 -10.9532,47.0986 -47.8639,73.019 -69.7702,117.9269 -21.9063,44.908 -27.7185,108.2555 -58.3874,149.8775 -30.6688,41.622 -64.6247,79.9602 -101.8654,115.0103 l -26.2843,-24.6423 c -5.4766,-4.3813 -8.7641,-9.3145 -9.8594,-14.7911 -1.0953,-4.3813 -1.6408,-9.3124 -1.6408,-14.789 0,-8.7625 8.2153,-23.5494 24.6451,-44.3604 17.5251,-19.7156 36.6928,-45.4554 57.5038,-77.2196 21.9063,-30.6688 42.7183,-66.2622 62.4339,-106.7889 19.7158,-40.5267 32.3096,-84.8889 37.7862,-133.0828 -6.572,2.1906 -14.24,3.8334 -23.0025,4.9288 -7.6672,1.0952 -16.428,1.6456 -26.2858,1.6456 -40.5267,0 -73.937,-13.6967 -100.2246,-41.0796 -25.1923,-27.3829 -37.7875,-62.4295 -37.7875,-105.1468 0,-4.792 0.2039,-9.4981 0.6146,-14.119 z m 25.998,2.9825 c -3.248,63.7822 45.8234,118.1215 109.6055,121.3719 63.7847,3.2491 118.1261,-45.8253 121.374,-109.6101 3.2481,-63.7848 -45.8272,-118.12532 -109.612,-121.37224 -63.7824,-3.24541 -118.1197,45.82824 -121.3675,109.61044 z"
                 sodipodi:nodetypes="csscscsscccsccsccscscscscs" /></g></g><path
             id="path572"
             style="fill:#000000;fill-opacity:1;stroke-width:2.68238"
             inkscape:label="primary_circle_left"
             d="m 1291.0343,287.80225 a 120.21809,120.21809 0 0 0 -120.22,120.21851 120.21809,120.21809 0 0 0 120.22,120.2185 120.21809,120.21809 0 0 0 120.2201,-120.2185 120.21809,120.21809 0 0 0 -120.2201,-120.21851 z m 0,30.05844 a 90.163567,90.163567 0 0 1 90.1637,90.16007 90.163567,90.163567 0 0 1 -90.1637,90.16515 90.163567,90.163567 0 0 1 -90.1637,-90.16515 90.163567,90.163567 0 0 1 90.1637,-90.16007 z" /><path
             id="path574"
             style="fill:#000000;fill-opacity:1;stroke-width:2.68238"
             inkscape:label="primary_circle_rigth"
             d="m 1591.7817,430.40459 a 120.21809,120.21809 0 0 0 -120.22,120.21851 120.21809,120.21809 0 0 0 120.22,120.2185 120.21809,120.21809 0 0 0 120.2147,-120.2185 120.21809,120.21809 0 0 0 -120.2147,-120.21851 z m 0,30.05336 a 90.163567,90.163567 0 0 1 90.1638,90.16515 90.163567,90.163567 0 0 1 -90.1638,90.16515 90.163567,90.163567 0 0 1 -90.1637,-90.16515 90.163567,90.163567 0 0 1 90.1637,-90.16515 z" /></g><text
           xml:space="preserve"
           style="font-style:italic;font-variant:normal;font-weight:300;font-stretch:normal;font-size:531.383px;font-family:Lato;-inkscape-font-specification:'Lato, Light Italic';font-variant-ligatures:normal;font-variant-caps:normal;font-variant-numeric:normal;font-variant-east-asian:normal;text-align:center;letter-spacing:11.4014px;word-spacing:0px;text-anchor:middle;display:inline;fill:#000000;fill-opacity:1;stroke:none;stroke-width:2.57448"
           x="1978.2167"
           y="1026.7118"
           id="text580"
           inkscape:label="C.O.M.A"
           transform="scale(0.99919444,1.0008062)"><tspan
             sodipodi:role="line"
             id="tspan578"
             x="1983.9174"
             y="1026.7118"
             style="font-style:italic;font-variant:normal;font-weight:300;font-stretch:normal;font-size:531.383px;font-family:Lato;-inkscape-font-specification:'Lato, Light Italic';font-variant-ligatures:normal;font-variant-caps:normal;font-variant-numeric:normal;font-variant-east-asian:normal;fill:#000000;fill-opacity:1;stroke-width:2.57448">C.O.M.A</tspan></text></g></g></g></svg>
