<?xml version="1.0" encoding="UTF-8" standalone="no"?>
<!-- Created with Inkscape (http://www.inkscape.org/) -->

<svg
   version="1.1"
   id="svg2"
   width="944.99969"
   height="151.83563"
   viewBox="0 0 944.9997 151.83563"
   sodipodi:docname="LOGO_HORIZONTAL_945PX.svg"
   xml:space="preserve"
   inkscape:export-filename="LOGOTIPO/ISOTIPO/ISOTIPO_30PX.svg"
   inkscape:export-xdpi="96"
   inkscape:export-ydpi="96"
   inkscape:version="1.2.2 (b0a8486541, 2022-12-01)"
   xmlns:inkscape="http://www.inkscape.org/namespaces/inkscape"
   xmlns:sodipodi="http://sodipodi.sourceforge.net/DTD/sodipodi-0.dtd"
   xmlns="http://www.w3.org/2000/svg"
   xmlns:svg="http://www.w3.org/2000/svg"><defs
     id="defs6" /><sodipodi:namedview
     id="namedview4"
     pagecolor="#ffffff"
     bordercolor="#000000"
     borderopacity="0.25"
     inkscape:showpageshadow="2"
     inkscape:pageopacity="0.0"
     inkscape:pagecheckerboard="0"
     inkscape:deskcolor="#d1d1d1"
     showgrid="false"
     showguides="false"
     inkscape:zoom="0.20844919"
     inkscape:cx="2386.6728"
     inkscape:cy="1009.8384"
     inkscape:window-width="1360"
     inkscape:window-height="731"
     inkscape:window-x="0"
     inkscape:window-y="0"
     inkscape:window-maximized="1"
     inkscape:current-layer="g4463"><inkscape:grid
       type="xygrid"
       id="grid295" /><sodipodi:guide
       position="-1676.2653,1218.1017"
       orientation="0,2880"
       id="guide297"
       inkscape:locked="false" /><sodipodi:guide
       position="1203.7347,1218.1017"
       orientation="1920,0"
       id="guide299"
       inkscape:locked="false" /><sodipodi:guide
       position="1203.7347,-701.89837"
       orientation="0,-2880"
       id="guide301"
       inkscape:locked="false" /><sodipodi:guide
       position="-1676.2653,-701.89837"
       orientation="-1920,0"
       id="guide303"
       inkscape:locked="false" /><sodipodi:guide
       position="241.14564,110.39907"
       orientation="1,0"
       id="guide7706"
       inkscape:locked="false" /><sodipodi:guide
       position="-234.53606,-86.897299"
       orientation="1,0"
       id="guide2530"
       inkscape:locked="false" /><sodipodi:guide
       position="201.94784,504.40362"
       orientation="1,0"
       id="guide28947"
       inkscape:locked="false" /><sodipodi:guide
       position="685.69614,-48.283369"
       orientation="0,-1"
       id="guide28949"
       inkscape:locked="false" /><sodipodi:guide
       position="654.03884,-22.008729"
       orientation="1,0"
       id="guide29047"
       inkscape:locked="false" /><sodipodi:guide
       position="776.30784,-164.94941"
       orientation="0,-1"
       id="guide29049"
       inkscape:locked="false" /><sodipodi:guide
       position="-947.92069,-279.64873"
       orientation="1,0"
       id="guide29177"
       inkscape:locked="false" /><sodipodi:guide
       position="-374.76655,-498.76558"
       orientation="0,-1"
       id="guide29179"
       inkscape:locked="false" /><sodipodi:guide
       position="16.455542,-606.91601"
       orientation="0,-1"
       id="guide29181"
       inkscape:locked="false" /><sodipodi:guide
       position="-1509.7701,590.19442"
       orientation="1,0"
       id="guide29183"
       inkscape:locked="false" /><sodipodi:guide
       position="69.742141,-90.321529"
       orientation="0,-1"
       id="guide18288"
       inkscape:locked="false" /><sodipodi:guide
       position="358.36084,712.24452"
       orientation="0,-1"
       id="guide18320"
       inkscape:locked="false" /><sodipodi:guide
       position="-422.83775,271.67055"
       orientation="1,0"
       id="guide18322"
       inkscape:locked="false" /><sodipodi:guide
       position="-740.78548,73.937911"
       orientation="1,0"
       id="guide50044"
       inkscape:locked="false" /><sodipodi:guide
       position="450.66054,264.88609"
       orientation="1,0"
       id="guide2851"
       inkscape:locked="false" /><sodipodi:guide
       position="854.33544,656.68822"
       orientation="0,-1"
       id="guide2907"
       inkscape:locked="false" /><sodipodi:guide
       position="612.39584,-27.313839"
       orientation="0,-1"
       id="guide2909"
       inkscape:locked="false" /><sodipodi:guide
       position="802.83984,427.79682"
       orientation="0,-1"
       id="guide2911"
       inkscape:locked="false" /></sodipodi:namedview><g
     inkscape:groupmode="layer"
     id="layer7"
     inkscape:label="6  ESCALAS MÃNIMAS"
     style="display:inline"
     transform="translate(-1676.2653,-1066.266)"><g
       id="g9274"
       inkscape:label=" LOGO HORIZONTAL TAGLINE 945PX V1"
       style="display:inline"
       transform="translate(1378.3003,316.34712)"><g
         inkscape:groupmode="layer"
         id="g9272"
         inkscape:label="LOGOTIPO HORIZONTAL TAGLINE"
         style="display:inline;fill:#ffffff;stroke-width:2.57447"
         transform="matrix(0.38842877,0,0,0.38842877,122.8566,500.97602)"
         inkscape:export-filename="../Manual Identidad Marca/LOGO_HORIZONTAL_TAGLINE.svg"
         inkscape:export-xdpi="96"
         inkscape:export-ydpi="96"><g
           id="g9266"
           inkscape:label="LOGO"
           style="display:inline;fill:#ffffff;stroke-width:2.68238"
           transform="matrix(0.93049303,0,0,0.98998185,-622.19025,355.97461)"><g
             id="g9256"
             transform="matrix(0.77968761,0,0,0.77968761,334.55933,2189.9438)"
             style="fill:#ffffff;stroke-width:3.44028"
             inkscape:label="comas"><g
               aria-label=","
               transform="matrix(0.09269299,-0.99569474,-0.99569474,-0.09269299,0,0)"
               id="g9250"
               style="font-style:italic;font-weight:300;font-size:3285.95px;font-family:Lato;-inkscape-font-specification:'Lato,  weight=250 Italic';text-align:center;text-anchor:middle;fill:#ffffff;fill-opacity:1;stroke-width:3.44028"
               inkscape:label="bottom_coma"><path
                 id="path9248"
                 style="fill:#ffffff;fill-opacity:1;stroke-width:3.44028"
                 d="m 2385.7035,-1340.7355 c -2.2591,33.8863 -7.9066,68.0816 -16.943,102.584 -10.9531,47.0986 -39.545,75.0319 -61.4513,119.9398 -21.9063,44.908 -36.0319,106.2414 -66.7007,147.86342 -30.6689,41.62199 -64.6229,79.9608 -101.8637,115.0109 l -26.2899,-24.64539 c -5.4765,-4.38126 -8.7619,-9.30697 -9.8572,-14.78355 -1.0953,-4.38126 -1.6391,-9.31456 -1.6391,-14.79114 0,-8.76252 8.2104,-23.54638 24.6401,-44.35738 17.5251,-19.71568 36.6964,-45.45818 57.5074,-77.22226 21.9063,-30.6689 42.7167,-66.266 62.4323,-106.7927 19.7157,-40.5267 32.3105,-84.887 37.7871,-133.0809 -6.5719,2.1907 -14.2355,3.836 -22.998,4.9312 -7.6672,1.0954 -16.4321,1.6386 -26.2899,1.6386 -40.5267,0 -73.9346,-13.6884 -100.2221,-41.0713 -25.1923,-27.3828 -37.7881,-62.435 -37.7881,-105.1524 0,-38.336 13.1418,-71.1935 39.4294,-98.5764 26.2876,-27.3828 60.7946,-41.0731 103.5119,-41.0731 47.0985,0 83.2409,16.4313 108.4332,49.2907 26.2876,31.7642 39.4312,73.9328 39.4312,126.5079 0,11.227 -0.3766,22.4846 -1.1296,33.78 z m -27.6087,-59.1823 c 5.9202,-63.5924 -40.8331,-119.9433 -104.4257,-125.8622 -63.5924,-5.9212 -119.9439,40.8312 -125.8639,104.4237 -5.9202,63.5924 40.8331,119.9433 104.4257,125.8622 63.5924,5.9212 119.9439,-40.8312 125.8639,-104.4237 z"
                 sodipodi:nodetypes="scsscccsccsccscssscssscscs" /></g><g
               aria-label=","
               transform="matrix(-0.05085568,0.99870601,0.99870601,0.05085568,0,0)"
               id="g9254"
               style="font-style:italic;font-weight:300;font-size:3285.95px;font-family:Lato;-inkscape-font-specification:'Lato,  weight=250 Italic';text-align:center;text-anchor:middle;fill:#ffffff;fill-opacity:1;stroke-width:3.44028"
               inkscape:label="top_coma"><path
                 id="path9252"
                 style="fill:#ffffff;fill-opacity:1;stroke-width:3.44028"
                 d="m -2486.3416,1100.064 c 2.8752,-32.3461 15.8113,-60.4989 38.8129,-84.4589 26.2876,-27.38289 60.7905,-41.07321 103.5078,-41.07321 47.0986,0 83.2442,16.42472 108.4364,49.28421 26.2876,31.7641 39.4328,73.9329 39.4328,126.508 0,44.908 -6.0236,90.3667 -18.0721,136.3699 -10.9532,47.0986 -39.159,73.7319 -61.0654,118.6398 -21.9063,44.908 -36.4168,107.543 -67.0856,149.165 -30.6689,41.622 -64.6247,79.9602 -101.8654,115.0103 l -26.2906,-24.6496 c -5.4766,-4.3812 -8.7579,-9.3072 -9.8532,-14.7838 -1.0953,-4.3813 -1.6473,-9.3128 -1.6473,-14.7894 0,-8.7625 8.2153,-23.5493 24.6451,-44.3603 17.5251,-19.7157 36.6928,-45.4555 57.5038,-77.2196 21.9063,-30.6689 42.7183,-66.2622 62.434,-106.7889 19.7157,-40.5267 32.3095,-84.889 37.7861,-133.0829 -6.572,2.1907 -14.2335,3.8338 -22.996,4.9291 -7.6672,1.0953 -16.4345,1.6453 -26.2923,1.6453 -40.5267,0 -73.9305,-13.6964 -100.2181,-41.0792 -25.1922,-27.3829 -37.7875,-62.4296 -37.7875,-105.1469 0,-4.792 0.2039,-9.4981 0.6146,-14.1189 z m 25.9915,2.9821 c -3.2481,63.7848 45.8272,118.1254 109.612,121.3723 63.7824,3.2454 118.1197,-45.8282 121.3675,-109.6104 3.248,-63.7822 -45.8234,-118.12158 -109.6055,-121.37196 -63.7847,-3.24913 -118.1261,45.82526 -121.374,109.61006 z"
                 sodipodi:nodetypes="csscscsscccsccsccscscccccc" /></g></g><path
             id="circle9258"
             style="fill:#ffffff;fill-opacity:1;stroke-width:2.68238"
             inkscape:label="primary_circle_left"
             d="m 1291.0345,287.80571 a 120.21809,120.21809 0 0 0 -120.22,120.21851 120.21809,120.21809 0 0 0 120.22,120.2185 120.21809,120.21809 0 0 0 120.2201,-120.2185 120.21809,120.21809 0 0 0 -120.2201,-120.21851 z m 0,30.05336 a 90.163567,90.163567 0 0 1 90.1637,90.16515 90.163567,90.163567 0 0 1 -90.1637,90.16007 90.163567,90.163567 0 0 1 -90.1637,-90.16007 90.163567,90.163567 0 0 1 90.1637,-90.16515 z" /><path
             id="circle9260"
             style="fill:#ffffff;fill-opacity:1;stroke-width:2.68238"
             inkscape:label="primary_circle_rigth"
             d="m 1591.7819,430.40297 a 120.21809,120.21809 0 0 0 -120.22,120.21851 120.21809,120.21809 0 0 0 120.22,120.2185 120.21809,120.21809 0 0 0 120.2147,-120.2185 120.21809,120.21809 0 0 0 -120.2147,-120.21851 z m 0,30.05336 a 90.163567,90.163567 0 0 1 90.1638,90.16515 90.163567,90.163567 0 0 1 -90.1638,90.16515 90.163567,90.163567 0 0 1 -90.1637,-90.16515 90.163567,90.163567 0 0 1 90.1637,-90.16515 z" /></g><text
           xml:space="preserve"
           style="font-style:italic;font-variant:normal;font-weight:300;font-stretch:normal;font-size:531.383px;font-family:Lato;-inkscape-font-specification:'Lato, Light Italic';font-variant-ligatures:normal;font-variant-caps:normal;font-variant-numeric:normal;font-variant-east-asian:normal;text-align:center;letter-spacing:11.4014px;word-spacing:0px;text-anchor:middle;display:inline;fill:#ffffff;fill-opacity:1;stroke:none;stroke-width:2.57448"
           x="1978.2167"
           y="1026.7118"
           id="text9270"
           inkscape:label="C.O.M.A"
           transform="scale(0.99919444,1.0008062)"><tspan
             sodipodi:role="line"
             id="tspan9268"
             x="1983.9174"
             y="1026.7118"
             style="font-style:italic;font-variant:normal;font-weight:300;font-stretch:normal;font-size:531.383px;font-family:Lato;-inkscape-font-specification:'Lato, Light Italic';font-variant-ligatures:normal;font-variant-caps:normal;font-variant-numeric:normal;font-variant-east-asian:normal;fill:#ffffff;fill-opacity:1;stroke-width:2.57448">C.O.M.A</tspan></text></g></g></g></svg>
