<?xml version="1.0" encoding="UTF-8" standalone="no"?>
<!-- Created with Inkscape (http://www.inkscape.org/) -->

<svg
   version="1.1"
   id="svg2"
   width="188"
   height="132.47461"
   viewBox="0 0 188 132.47461"
   sodipodi:docname="ISOTIPO_188PX.svg"
   xml:space="preserve"
   inkscape:export-filename="LOGOTIPO/ISOTIPO/ISOTIPO_30PX.svg"
   inkscape:export-xdpi="96"
   inkscape:export-ydpi="96"
   inkscape:version="1.2.2 (b0a8486541, 2022-12-01)"
   xmlns:inkscape="http://www.inkscape.org/namespaces/inkscape"
   xmlns:sodipodi="http://sodipodi.sourceforge.net/DTD/sodipodi-0.dtd"
   xmlns="http://www.w3.org/2000/svg"
   xmlns:svg="http://www.w3.org/2000/svg"><defs
     id="defs6" /><sodipodi:namedview
     id="namedview4"
     pagecolor="#ffffff"
     bordercolor="#000000"
     borderopacity="0.25"
     inkscape:showpageshadow="2"
     inkscape:pageopacity="0.0"
     inkscape:pagecheckerboard="0"
     inkscape:deskcolor="#d1d1d1"
     showgrid="false"
     showguides="false"
     inkscape:zoom="0.20844919"
     inkscape:cx="2386.6728"
     inkscape:cy="1009.8384"
     inkscape:window-width="1360"
     inkscape:window-height="731"
     inkscape:window-x="0"
     inkscape:window-y="0"
     inkscape:window-maximized="1"
     inkscape:current-layer="g4463"><inkscape:grid
       type="xygrid"
       id="grid295" /><sodipodi:guide
       position="-1856.2125,1674.2248"
       orientation="0,2880"
       id="guide297"
       inkscape:locked="false" /><sodipodi:guide
       position="1023.7875,1674.2248"
       orientation="1920,0"
       id="guide299"
       inkscape:locked="false" /><sodipodi:guide
       position="1023.7875,-245.7752"
       orientation="0,-2880"
       id="guide301"
       inkscape:locked="false" /><sodipodi:guide
       position="-1856.2125,-245.7752"
       orientation="-1920,0"
       id="guide303"
       inkscape:locked="false" /><sodipodi:guide
       position="61.198378,566.52228"
       orientation="1,0"
       id="guide7706"
       inkscape:locked="false" /><sodipodi:guide
       position="-414.48333,369.22592"
       orientation="1,0"
       id="guide2530"
       inkscape:locked="false" /><sodipodi:guide
       position="22.000578,960.52684"
       orientation="1,0"
       id="guide28947"
       inkscape:locked="false" /><sodipodi:guide
       position="505.74888,407.83984"
       orientation="0,-1"
       id="guide28949"
       inkscape:locked="false" /><sodipodi:guide
       position="474.09158,434.11448"
       orientation="1,0"
       id="guide29047"
       inkscape:locked="false" /><sodipodi:guide
       position="596.36058,291.1738"
       orientation="0,-1"
       id="guide29049"
       inkscape:locked="false" /><sodipodi:guide
       position="-1127.868,176.47448"
       orientation="1,0"
       id="guide29177"
       inkscape:locked="false" /><sodipodi:guide
       position="-554.71383,-42.642372"
       orientation="0,-1"
       id="guide29179"
       inkscape:locked="false" /><sodipodi:guide
       position="-163.49173,-150.7928"
       orientation="0,-1"
       id="guide29181"
       inkscape:locked="false" /><sodipodi:guide
       position="-1689.7174,1046.3176"
       orientation="1,0"
       id="guide29183"
       inkscape:locked="false" /><sodipodi:guide
       position="-110.20512,365.80169"
       orientation="0,-1"
       id="guide18288"
       inkscape:locked="false" /><sodipodi:guide
       position="178.41358,1168.3677"
       orientation="0,-1"
       id="guide18320"
       inkscape:locked="false" /><sodipodi:guide
       position="-602.78502,727.79376"
       orientation="1,0"
       id="guide18322"
       inkscape:locked="false" /><sodipodi:guide
       position="-920.73275,530.06112"
       orientation="1,0"
       id="guide50044"
       inkscape:locked="false" /><sodipodi:guide
       position="270.71328,721.0093"
       orientation="1,0"
       id="guide2851"
       inkscape:locked="false" /><sodipodi:guide
       position="674.38818,1112.8114"
       orientation="0,-1"
       id="guide2907"
       inkscape:locked="false" /><sodipodi:guide
       position="432.44858,428.80937"
       orientation="0,-1"
       id="guide2909"
       inkscape:locked="false" /><sodipodi:guide
       position="622.89258,883.92004"
       orientation="0,-1"
       id="guide2911"
       inkscape:locked="false" /></sodipodi:namedview><g
     inkscape:groupmode="layer"
     id="layer7"
     inkscape:label="6  ESCALAS MÃNIMAS"
     style="display:inline"
     transform="translate(-1856.2125,-1541.7502)"><g
       id="g518"
       inkscape:label="ISOTIPO 188 PX V5"
       style="display:inline;fill:#000000;stroke-width:2.96698"
       transform="matrix(0.32676067,0,0,0.34765135,1463.407,1441.6942)"><g
         id="g512"
         transform="matrix(0.77565923,0,0,0.77565923,387.75426,2180.1161)"
         style="fill:#000000;stroke-width:3.82506"
         inkscape:label="comas"
         inkscape:export-filename="LOGOTIPO/ISOTIPO/ISOTIPO_188PX.svg"
         inkscape:export-xdpi="96"
         inkscape:export-ydpi="96"><g
           aria-label=","
           transform="matrix(0.09269299,-0.99569474,-0.99569474,-0.09269299,0,0)"
           id="g506"
           style="font-style:italic;font-weight:300;font-size:3285.95px;font-family:Lato;-inkscape-font-specification:'Lato,  weight=250 Italic';text-align:center;text-anchor:middle;fill:#000000;fill-opacity:1;stroke-width:3.82506"
           inkscape:label="bottom_coma"><path
             id="path504"
             style="fill:#000000;fill-opacity:1;stroke-width:3.82506"
             d="m 2385.702,-1340.7354 c -2.259,33.8863 -19.0489,39.6985 -28.0853,74.201 -10.9531,47.0985 -27.3854,93.1003 -49.2917,138.0083 -21.9063,44.9079 -37.0472,116.5552 -67.7161,158.17715 -30.6688,41.62199 -64.6199,79.96208 -101.8607,115.01218 l -26.2936,-24.64416 c -5.4765,-4.38126 -8.7596,-9.30972 -9.8549,-14.7863 -1.0954,-4.38126 -1.6422,-9.31137 -1.6422,-14.78794 0,-8.76252 8.2132,-23.54755 24.6429,-44.35855 17.5251,-19.71568 36.6942,-45.46109 57.5053,-77.22518 21.9063,-30.6689 42.7167,-66.2607 62.4323,-106.7874 19.7157,-40.5267 32.3142,-84.8871 37.7907,-133.081 -6.5718,2.1906 -14.2388,3.8294 -23.0014,4.9247 -7.6671,1.0953 -16.4318,1.6467 -26.2897,1.6467 -40.5267,0 -73.9322,-13.6937 -100.2198,-41.0766 -25.1922,-27.3828 -37.792,-62.4336 -37.792,-105.151 0,-38.336 13.1434,-71.1983 39.4309,-98.5812 26.2876,-27.3828 60.7928,-41.0719 103.5101,-41.0719 47.0985,0 83.2468,16.4275 108.4391,49.287 26.2875,31.7641 39.4264,73.9337 39.4264,126.5089 0,11.227 -0.3772,22.4898 -1.1303,33.7853 z m -27.6101,-59.1835 c 5.9175,-63.5902 -40.8343,-119.9379 -104.4243,-125.8576 -63.59,-5.9199 -119.9394,40.8296 -125.8616,104.4194 -5.922,63.5928 40.8306,119.9452 104.4236,125.8652 63.5929,5.9202 119.944,-40.8339 125.8623,-104.427 z"
             sodipodi:nodetypes="ccsscccsccsccscssscsccscsc" /></g><g
           aria-label=","
           transform="matrix(-0.05085568,0.99870601,0.99870601,0.05085568,0,0)"
           id="g510"
           style="font-style:italic;font-weight:300;font-size:3285.95px;font-family:Lato;-inkscape-font-specification:'Lato,  weight=250 Italic';text-align:center;text-anchor:middle;fill:#000000;fill-opacity:1;stroke-width:3.82506"
           inkscape:label="top_coma"><path
             id="path508"
             style="fill:#000000;fill-opacity:1;stroke-width:3.82506"
             d="m -2486.9586,1114.1805 c 0,-38.3361 13.1445,-71.1949 39.432,-98.5777 26.2876,-27.38292 60.7907,-41.07145 103.508,-41.07145 47.0987,0 83.2442,16.4274 108.4364,49.28685 26.2876,31.7642 39.4287,73.9378 39.4287,126.513 0,44.9079 -6.0204,90.3595 -18.0688,136.3628 -10.9532,47.0986 -43.6811,61.1002 -65.5874,106.0081 -21.9063,44.908 -31.8953,120.1785 -62.5642,161.8005 -30.6688,41.6219 -64.6291,79.9545 -101.8697,115.0046 l -26.2824,-24.6406 c -5.4766,-4.3813 -8.7688,-9.3158 -9.8642,-14.7924 -1.0953,-4.3812 -1.6405,-9.3059 -1.6405,-14.7825 0,-8.7625 8.2171,-23.5508 24.6469,-44.3618 17.5251,-19.7157 36.6941,-45.4536 57.505,-77.2178 21.9063,-30.6688 42.7187,-66.27 62.4343,-106.7967 19.7158,-40.5267 32.3112,-84.8886 37.7878,-133.0825 -6.572,2.1907 -14.2392,3.8368 -23.0017,4.9321 -7.6672,1.0953 -16.4356,1.6395 -26.2934,1.6395 -40.5267,0 -73.9295,-13.6923 -100.217,-41.0752 -25.1923,-27.3829 -37.7898,-62.4315 -37.7898,-105.1488 z m 26.6102,-11.1372 c -3.2499,63.7853 45.8247,118.1275 109.6101,121.3754 63.7853,3.2482 118.1262,-45.828 121.3724,-109.6134 3.2455,-63.7824 -45.8282,-118.1199 -109.6105,-121.36765 -63.7823,-3.24803 -118.1217,45.82345 -121.372,109.60565 z"
             sodipodi:nodetypes="ssscscsscccsccsccscsccccc" /></g></g><path
         id="path514"
         style="fill:#000000;fill-opacity:1;stroke-width:2.96698"
         inkscape:label="primary_circle_left"
         d="M 1339.2855,287.80573 A 119.59696,119.59696 0 0 0 1219.693,407.40292 119.59696,119.59696 0 0 0 1339.2855,527.00011 119.59696,119.59696 0 0 0 1458.8839,407.40292 119.59696,119.59696 0 0 0 1339.2855,287.80573 Z m 0,29.8993 a 89.697723,89.697723 0 0 1 89.7003,89.69789 89.697723,89.697723 0 0 1 -89.7003,89.69789 89.697723,89.697723 0 0 1 -89.6944,-89.69789 89.697723,89.697723 0 0 1 89.6944,-89.69789 z" /><path
         id="path516"
         style="fill:#000000;fill-opacity:1;stroke-width:2.96698"
         inkscape:label="primary_circle_rigth"
         d="m 1638.4819,429.66728 a 119.59696,119.59696 0 0 0 -119.5985,119.59719 119.59696,119.59696 0 0 0 119.5985,119.59719 119.59696,119.59696 0 0 0 119.5985,-119.59719 119.59696,119.59696 0 0 0 -119.5985,-119.59719 z m 0,29.8993 a 89.697723,89.697723 0 0 1 89.6944,89.69789 89.697723,89.697723 0 0 1 -89.6944,89.69789 89.697723,89.697723 0 0 1 -89.7004,-89.69789 89.697723,89.697723 0 0 1 89.7004,-89.69789 z" /></g></g></svg>
