<?xml version="1.0" encoding="UTF-8" standalone="no"?>
<!-- Created with Inkscape (http://www.inkscape.org/) -->

<svg
   version="1.1"
   id="svg2"
   width="12in"
   height="12in"
   viewBox="0 0 1152 1152"
   xml:space="preserve"
   xmlns="http://www.w3.org/2000/svg"
   xmlns:svg="http://www.w3.org/2000/svg"><defs
     id="defs6" /><g
     id="g8"><path
       style="fill:#000000"
       d="m 320.21455,897.10615 c -14.3796,-5.1225 -17.8433,-13.37006 -17.3813,-41.3877 l 0.3235,-19.62018 2.7304,-4.6446 c 3.0756,-5.23185 7.7151,-9.50707 12.4875,-11.50694 l 3.2179,-1.34846 h 103.0978 c 64.0885,0 103.7779,-0.36391 104.895,-0.96178 2.4188,-1.2945 3.276,-3.7034 8.4651,-23.78822 l 4.4567,-17.25 -91.1752,-0.008 c -50.1464,-0.005 -120.8752,-0.25671 -157.17521,-0.55957 l -66,-0.55063 -6.7687,-1.55321 c -13.0457,-2.99358 -23.3699,-12.15747 -30.482,-27.05648 l -3.4503,-7.22789 -0.8024,-10.27211 c -1.2842,-16.44134 -1.3077,-428.02575 -0.025,-436.30207 2.8843,-18.60913 20.1672,-37.1891 37.0284,-39.80736 1.925,-0.29892 164.60001,-0.65756 361.50001,-0.79699 l 358,-0.2535 4.4748,1.29297 c 17.126,4.94853 31.43565,19.86652 36.06195,37.59484 l 1.3047,5 0.1663,215.5 c 0.091,118.525 -0.214,218.57498 -0.6789,222.33329 -1.941,15.6922 -12.8319,30.84102 -27.53915,38.30637 l -7.6052,3.86034 -164.3422,0.26457 c -90.3883,0.14552 -164.3423,0.6437 -164.3423,1.10708 0,0.46337 1.5409,5.96932 3.4242,12.23542 1.8833,6.26611 4.6046,15.35299 6.0474,20.19307 l 2.6233,8.80015 109.7699,-0.17774 109.7699,-0.17773 4.4326,1.96942 c 6.2439,2.77416 10.0819,6.3094 12.9535,11.93183 l 2.4792,4.85393 v 20.5 20.5 l -2.2568,4.22344 c -3.1419,5.87999 -8.6281,11.08146 -14.641,13.88129 l -5.1022,2.37573 -263,-0.0341 -263,-0.0341 -3.9422,-1.40433 z m 265.0608,-141.13117 c 7.0894,-3.36416 10.2543,-12.66965 6.5902,-19.37671 -5.556,-10.17034 -19.5951,-10.77441 -25.045,-1.07762 -7.141,12.70564 5.4277,26.6361 18.4548,20.45433 z m 319.3843,-64.01418 c 2.2194,-2.37926 4.3652,-5.99132 5.0495,-8.5 l 1.1902,-4.36253 -0.7061,-167.5 -0.706,-167.5 -2.3743,-4.10814 c -1.3058,-2.25947 -3.6302,-4.95947 -5.1652,-6 l -2.791,-1.89186 -312.1808,-0.29233 -312.18081,-0.29233 -3.5029,1.46361 c -2.064,0.86237 -4.6598,3.21181 -6.3192,5.7193 l -2.8163,4.25569 v 171.23021 171.23021 l 3.0711,3.84282 c 1.6891,2.11355 4.6141,4.63118 6.5,5.59473 l 3.4289,1.75191 312.82181,-0.25191 312.8218,-0.25191 z m -412.9395,-48.26444 c -6.6485,-2.70932 -11.5377,-7.35843 -14.9775,-14.2422 l -3.0859,-6.17533 -0.014,-48.09028 c -0.015,-53.52149 0.093,-52.19891 -4.338,-53.15637 -8.7428,-1.88925 -17.0033,-8.60204 -20.7579,-16.86853 l -1.8465,-4.06538 -0.013,-23.5 -0.013,-23.5 2.8904,-5.03907 c 4.2518,-7.41271 55.7131,-60.28259 61.77,-63.46093 l 4.7643,-2.5 60.4003,-0.28717 60.4002,-0.28716 6.128,2.89901 6.128,2.89901 21.1028,21.38815 c 28.5366,28.92248 34.2047,35.1987 36.5248,40.44363 l 1.9811,4.47877 0.1474,22.73288 0.1474,22.73288 -2.5611,5.5 c -4.1739,8.96351 -10.8211,14.691 -20.3424,17.52799 l -4,1.19184 -0.5,51.4699 -0.5,51.4699 -3.0371,4.92019 c -1.8591,3.01167 -5.2894,6.47176 -8.8435,8.92018 l -5.8063,4 -83.6566,0.20302 -83.6565,0.20301 z m 40.0054,-41.09809 c 0.3971,-12.91862 1.0312,-19.7548 2.1017,-22.65914 15.2627,-41.40945 72.2788,-42.18163 88.9514,-1.20469 l 2.1824,5.36383 0.47,18.25 0.47,18.25 h 14.2036 14.2035 l 2.4243,-2.57983 2.4243,-2.57983 0.2776,-47.72444 0.2777,-47.72445 -4.1492,-2.71656 -4.1493,-2.71657 -4.1284,3.37726 c -7.3096,5.97965 -12.4155,8.08859 -19.6284,8.10731 l -6.5,0.0169 -5.5456,-2.581 c -3.0501,-1.41955 -7.2352,-4.06441 -9.3001,-5.87748 l -3.7545,-3.29648 -3.1999,3.07827 c -1.7599,1.69304 -5.6749,4.32566 -8.6999,5.85026 l -5.5,2.77201 -7,-0.0153 -7,-0.0153 -5,-2.60836 c -2.75,-1.43459 -6.5499,-3.7689 -8.4443,-5.18735 -4.1853,-3.1339 -5.2003,-3.19202 -7.6507,-0.43809 -8.8917,9.99281 -28.0116,10.15836 -39.986,0.34621 l -4.47,-3.66285 -4.9745,3.19211 -4.9745,3.19211 v 45.74787 45.74787 l 2.28,3.38332 c 3.6146,5.36373 5.6826,5.94288 20.22,5.66286 l 13,-0.25047 z m 70.9312,3.15972 v -14.84028 l -3.0683,-6.14029 c -9.1741,-18.35897 -32.5732,-18.45856 -42.0891,-0.17915 l -2.3426,4.5 -0.3445,14.28265 c -0.1894,7.85546 -0.091,14.94296 0.2187,15.75 l 0.563,1.46735 h 23.5314 23.5314 z m -110.6743,-108.0541 c 2.2959,-1.58749 6.3426,-5.18568 8.9926,-7.99598 5.552,-5.88763 5.8755,-5.98897 8.1308,-2.54699 11.7315,17.90453 26.7019,19.03474 39.4503,2.97835 5.4435,-6.85594 4.7157,-6.93772 12.9615,1.45653 4.0566,4.12969 8.7887,7.8446 11.5462,9.06441 l 4.6725,2.06688 3.7102,-1.20897 c 5.4471,-1.77494 11.7828,-6.43123 15.4696,-11.3691 1.7823,-2.38713 3.9999,-4.82381 4.928,-5.41486 l 1.6874,-1.07462 2.1075,3.41007 c 3.3507,5.42162 12.672,13.35849 17.0838,14.54645 l 3.9571,1.06554 4.4717,-1.97806 c 6.292,-2.78325 10.9276,-6.55067 15.1679,-12.32711 l 3.654,-4.97768 5.8465,6.12491 c 18.6111,19.49722 29.8174,15.2991 29.8311,-11.17539 l 0.01,-10.75 -89.25,-0.12661 c -49.0875,-0.0696 -97.2758,-0.18213 -107.085,-0.25 -21.4133,-0.14815 -20.0558,-1.08943 -19.2857,13.3727 1.0828,20.33294 8.6982,26.26996 21.9464,17.10953 z m 170.6743,-54.08122 c 0,-0.90773 -20.7542,-23.17471 -30.5477,-32.7744 l -4.3359,-4.25 -48.3082,0.0136 c -26.5695,0.008 -49.3527,0.29336 -50.6293,0.63523 -2.5307,0.6777 -35.2533,35.37878 -34.5143,36.60112 0.7008,1.1592 168.3354,0.93454 168.3354,-0.22555 z"
       id="path642" /></g></svg>
