<?xml version="1.0" encoding="UTF-8" standalone="no"?>
<!-- Created with Inkscape (http://www.inkscape.org/) -->

<svg
   version="1.1"
   id="svg2"
   width="755.00049"
   height="400.08008"
   viewBox="0 0 755.00049 400.08008"
   sodipodi:docname="LOGO_VERTICAL_TAGLINE_755PX.svg"
   xml:space="preserve"
   inkscape:export-filename="LOGOTIPO/ISOTIPO/ISOTIPO_30PX.svg"
   inkscape:export-xdpi="96"
   inkscape:export-ydpi="96"
   inkscape:version="1.2.2 (b0a8486541, 2022-12-01)"
   xmlns:inkscape="http://www.inkscape.org/namespaces/inkscape"
   xmlns:sodipodi="http://sodipodi.sourceforge.net/DTD/sodipodi-0.dtd"
   xmlns="http://www.w3.org/2000/svg"
   xmlns:svg="http://www.w3.org/2000/svg"><defs
     id="defs6" /><sodipodi:namedview
     id="namedview4"
     pagecolor="#ffffff"
     bordercolor="#000000"
     borderopacity="0.25"
     inkscape:showpageshadow="2"
     inkscape:pageopacity="0.0"
     inkscape:pagecheckerboard="0"
     inkscape:deskcolor="#d1d1d1"
     showgrid="false"
     showguides="false"
     inkscape:zoom="0.20844919"
     inkscape:cx="2386.6728"
     inkscape:cy="1009.8384"
     inkscape:window-width="1360"
     inkscape:window-height="731"
     inkscape:window-x="0"
     inkscape:window-y="0"
     inkscape:window-maximized="1"
     inkscape:current-layer="g4463"><inkscape:grid
       type="xygrid"
       id="grid295" /><sodipodi:guide
       position="-1206.0968,3355.3128"
       orientation="0,2880"
       id="guide297"
       inkscape:locked="false" /><sodipodi:guide
       position="1673.9032,3355.3128"
       orientation="1920,0"
       id="guide299"
       inkscape:locked="false" /><sodipodi:guide
       position="1673.9032,1435.3128"
       orientation="0,-2880"
       id="guide301"
       inkscape:locked="false" /><sodipodi:guide
       position="-1206.0968,1435.3128"
       orientation="-1920,0"
       id="guide303"
       inkscape:locked="false" /><sodipodi:guide
       position="711.31409,2247.6102"
       orientation="1,0"
       id="guide7706"
       inkscape:locked="false" /><sodipodi:guide
       position="235.63238,2050.3139"
       orientation="1,0"
       id="guide2530"
       inkscape:locked="false" /><sodipodi:guide
       position="672.11629,2641.6148"
       orientation="1,0"
       id="guide28947"
       inkscape:locked="false" /><sodipodi:guide
       position="1155.8646,2088.9278"
       orientation="0,-1"
       id="guide28949"
       inkscape:locked="false" /><sodipodi:guide
       position="1124.2073,2115.2024"
       orientation="1,0"
       id="guide29047"
       inkscape:locked="false" /><sodipodi:guide
       position="1246.4763,1972.2618"
       orientation="0,-1"
       id="guide29049"
       inkscape:locked="false" /><sodipodi:guide
       position="-477.75226,1857.5624"
       orientation="1,0"
       id="guide29177"
       inkscape:locked="false" /><sodipodi:guide
       position="95.401883,1638.4456"
       orientation="0,-1"
       id="guide29179"
       inkscape:locked="false" /><sodipodi:guide
       position="486.62398,1530.2952"
       orientation="0,-1"
       id="guide29181"
       inkscape:locked="false" /><sodipodi:guide
       position="-1039.6016,2727.4056"
       orientation="1,0"
       id="guide29183"
       inkscape:locked="false" /><sodipodi:guide
       position="539.91059,2046.8896"
       orientation="0,-1"
       id="guide18288"
       inkscape:locked="false" /><sodipodi:guide
       position="828.52929,2849.4557"
       orientation="0,-1"
       id="guide18320"
       inkscape:locked="false" /><sodipodi:guide
       position="47.330683,2408.8817"
       orientation="1,0"
       id="guide18322"
       inkscape:locked="false" /><sodipodi:guide
       position="-270.61705,2211.1491"
       orientation="1,0"
       id="guide50044"
       inkscape:locked="false" /><sodipodi:guide
       position="920.82899,2402.0973"
       orientation="1,0"
       id="guide2851"
       inkscape:locked="false" /><sodipodi:guide
       position="1324.5039,2793.8994"
       orientation="0,-1"
       id="guide2907"
       inkscape:locked="false" /><sodipodi:guide
       position="1082.5643,2109.8973"
       orientation="0,-1"
       id="guide2909"
       inkscape:locked="false" /><sodipodi:guide
       position="1273.0083,2565.008"
       orientation="0,-1"
       id="guide2911"
       inkscape:locked="false" /></sodipodi:namedview><g
     inkscape:groupmode="layer"
     id="layer7"
     inkscape:label="6  ESCALAS MÍNIMAS"
     style="display:inline"
     transform="translate(-1206.0968,-2955.2327)"><g
       id="g574"
       inkscape:label="LOGOTIPO VERTICAL TAGLINE 755PX V5"
       transform="matrix(1.3333359,0,0,1.3333359,-555.75264,2480.1223)"
       style="display:inline;fill:#000000;stroke-width:0.749999"><text
         xml:space="preserve"
         style="font-style:italic;font-variant:normal;font-weight:300;font-stretch:normal;font-size:150.969px;font-family:Lato;-inkscape-font-specification:'Lato, Light Italic';font-variant-ligatures:normal;font-variant-caps:normal;font-variant-numeric:normal;font-variant-east-asian:normal;text-align:center;letter-spacing:3.2392px;word-spacing:0px;text-anchor:middle;display:inline;fill:#000000;fill-opacity:1;stroke:none;stroke-width:0.749999"
         x="1603.8912"
         y="601.0105"
         id="text552"
         inkscape:label="C.O.M.A"
         transform="scale(0.99919443,1.0008062)"><tspan
           sodipodi:role="line"
           id="tspan550"
           x="1605.5109"
           y="601.0105"
           style="font-style:italic;font-variant:normal;font-weight:300;font-stretch:normal;font-size:150.969px;font-family:Lato;-inkscape-font-specification:'Lato, Light Italic';font-variant-ligatures:normal;font-variant-caps:normal;font-variant-numeric:normal;font-variant-east-asian:normal;fill:#000000;fill-opacity:1;stroke-width:0.749999">C.O.M.A</tspan></text><g
         id="g568"
         inkscape:label="LOGO"
         style="display:inline;fill:#000000;stroke-width:2.75049"
         transform="matrix(0.26435756,0,0,0.28125862,1223.7651,275.38527)"><g
           id="g562"
           transform="matrix(0.77968761,0,0,0.77968761,334.55933,2189.9438)"
           style="fill:#000000;stroke-width:3.52766"
           inkscape:label="comas"><g
             aria-label=","
             transform="matrix(0.09269299,-0.99569474,-0.99569474,-0.09269299,0,0)"
             id="g556"
             style="font-style:italic;font-weight:300;font-size:3285.95px;font-family:Lato;-inkscape-font-specification:'Lato,  weight=250 Italic';text-align:center;text-anchor:middle;fill:#000000;fill-opacity:1;stroke-width:3.52766"
             inkscape:label="bottom_coma"><path
               id="path554"
               style="fill:#000000;fill-opacity:1;stroke-width:3.52766"
               d="m 2385.7034,-1340.7346 c -2.2591,33.8863 -7.9063,68.0792 -16.9427,102.5817 -10.9531,47.0985 -40.9153,66.9992 -62.8217,111.9072 -21.9063,44.9079 -34.6605,114.2773 -65.3293,155.8993 -30.6688,41.62199 -64.6237,79.96088 -101.8645,115.01098 l -26.2847,-24.64487 c -5.4766,-4.38126 -8.7653,-9.30972 -9.8606,-14.7863 -1.0953,-4.38126 -1.6418,-9.31548 -1.6418,-14.79205 0,-8.76253 8.2148,-23.54607 24.6445,-44.35707 17.525,-19.71568 36.693,-45.45744 57.504,-77.22159 21.9063,-30.6688 42.7147,-66.2641 62.4304,-106.7908 19.7157,-40.5267 32.3116,-84.8876 37.7881,-133.0814 -6.5718,2.1906 -14.2371,3.8298 -22.9997,4.9251 -7.6671,1.0953 -16.4327,1.6494 -26.2906,1.6494 -40.5267,0 -73.9334,-13.695 -100.221,-41.0779 -25.1922,-27.3829 -37.7825,-62.4322 -37.7825,-105.1496 0,-38.336 13.1387,-71.1928 39.4263,-98.5757 26.2875,-27.3828 60.7911,-41.0766 103.5084,-41.0766 47.0985,0 83.2473,16.4282 108.4396,49.2876 26.2875,31.7642 39.4303,73.9336 39.4303,126.5087 0,11.227 -0.3794,22.4884 -1.1325,33.7839 z m -27.6116,-59.1787 c 5.9214,-63.5925 -40.8311,-119.9442 -104.4237,-125.8642 -63.5926,-5.9202 -119.9435,40.8333 -125.8623,104.426 -5.9171,63.59 40.8346,119.9373 104.4244,125.857 63.5898,5.9199 119.9391,-40.8293 125.8616,-104.4188 z"
               sodipodi:nodetypes="scsscccsccsccscssscsscscsc" /></g><g
             aria-label=","
             transform="matrix(-0.05085568,0.99870601,0.99870601,0.05085568,0,0)"
             id="g560"
             style="font-style:italic;font-weight:300;font-size:3285.95px;font-family:Lato;-inkscape-font-specification:'Lato,  weight=250 Italic';text-align:center;text-anchor:middle;fill:#000000;fill-opacity:1;stroke-width:3.52766"
             inkscape:label="top_coma"><path
               id="path558"
               style="fill:#000000;fill-opacity:1;stroke-width:3.52766"
               d="m -2486.9558,1114.1854 c 0,-38.3361 13.138,-71.2024 39.4255,-98.5852 26.2876,-27.38294 60.7912,-41.06909 103.5085,-41.06909 47.0986,0 83.2463,16.42627 108.4385,49.28569 26.2876,31.7642 39.434,73.9357 39.434,126.5109 0,44.9079 -6.0253,90.3668 -18.0737,136.3701 -10.9532,47.0986 -35.7537,55.9547 -57.66,100.8626 -21.9063,44.908 -39.8278,125.314 -70.4966,166.9361 -30.6689,41.6219 -64.622,79.9605 -101.8627,115.0106 l -26.2882,-24.6438 c -5.4766,-4.3813 -8.7598,-9.3072 -9.8551,-14.7838 -1.0954,-4.3813 -1.6412,-9.3159 -1.6412,-14.7925 0,-8.7625 8.2086,-23.5484 24.6384,-44.3594 17.5251,-19.7157 36.6958,-45.4559 57.5068,-77.22 21.9063,-30.6689 42.7148,-66.2661 62.4304,-106.7928 19.7157,-40.5267 32.3146,-84.8879 37.7911,-133.0817 -6.5719,2.1906 -14.2358,3.832 -22.9983,4.9273 -7.6672,1.0953 -16.4312,1.643 -26.2891,1.643 -40.5267,0 -73.9346,-13.6853 -100.2222,-41.0681 -25.1922,-27.3829 -37.7861,-62.4326 -37.7861,-105.1499 z m 26.6055,-11.1411 c -3.2493,63.7848 45.8252,118.1264 109.6101,121.3743 63.7849,3.2481 118.1255,-45.8273 121.3723,-109.6123 3.2493,-63.7848 -45.8252,-118.12633 -109.6101,-121.37424 -63.7849,-3.24814 -118.1255,45.82734 -121.3723,109.61224 z"
               sodipodi:nodetypes="ssscscsscccsccsccscscscsc" /></g></g><path
           id="path564"
           style="fill:#000000;fill-opacity:1;stroke-width:2.75049"
           inkscape:label="primary_circle_left"
           d="m 1291.0332,287.80249 a 120.21809,120.21809 0 0 0 -120.215,120.22005 120.21809,120.21809 0 0 0 120.215,120.22004 120.21809,120.21809 0 0 0 120.2204,-120.22004 120.21809,120.21809 0 0 0 -120.2204,-120.22005 z m 0,30.05632 a 90.163567,90.163567 0 0 1 90.1653,90.16373 90.163567,90.163567 0 0 1 -90.1653,90.16373 90.163567,90.163567 0 0 1 -90.1654,-90.16373 90.163567,90.163567 0 0 1 90.1654,-90.16373 z" /><path
           id="path566"
           style="fill:#000000;fill-opacity:1;stroke-width:2.75049"
           inkscape:label="primary_circle_rigth"
           d="m 1591.7783,430.40202 a 120.21809,120.21809 0 0 0 -120.215,120.22004 120.21809,120.21809 0 0 0 120.215,120.22004 120.21809,120.21809 0 0 0 120.2204,-120.22004 120.21809,120.21809 0 0 0 -120.2204,-120.22004 z m 0,30.05631 a 90.163567,90.163567 0 0 1 90.1653,90.16373 90.163567,90.163567 0 0 1 -90.1653,90.16373 90.163567,90.163567 0 0 1 -90.1598,-90.16373 90.163567,90.163567 0 0 1 90.1598,-90.16373 z" /></g><text
         xml:space="preserve"
         style="font-style:italic;font-weight:300;font-size:23.1101px;font-family:Lato;-inkscape-font-specification:'Lato,  weight=250 Italic';text-align:center;text-anchor:middle;display:inline;opacity:1;fill:#000000;fill-opacity:1;stroke:none;stroke-width:0.749999;stroke-opacity:1"
         x="1605.4619"
         y="655.67804"
         id="text572"
         inkscape:label="TAGLINE"
         transform="scale(0.99919443,1.0008062)"><tspan
           sodipodi:role="line"
           id="tspan570"
           x="1605.4619"
           y="655.67804"
           style="font-style:normal;font-variant:normal;font-weight:bold;font-stretch:normal;font-size:23.1101px;font-family:Lato;-inkscape-font-specification:'Lato, Bold';font-variant-ligatures:normal;font-variant-caps:normal;font-variant-numeric:normal;font-variant-east-asian:normal;fill:#000000;fill-opacity:1;stroke-width:0.749999">CENTRO DE ORIENTACIÓN MATRIMONIAL ASISTIDA</tspan></text></g></g></svg>
